<svg width="1512" height="600" viewBox="0 0 1512 600" fill="none" xmlns="http://www.w3.org/2000/svg">
<g clip-path="url(#clip0_319_12972)">
<path d="M1512 0H0V600H1512V0Z" fill="#F9FAFB"/>
<path opacity="0.8" fill-rule="evenodd" clip-rule="evenodd" d="M179.117 -485.932H84.1247V-389.887H179.117V-485.932ZM179.117 -487H180.185H275.174H276.242H371.234H372.302H467.291H468.359H563.35H564.418H659.408H660.476H755.465H756.533H851.525H852.593H947.582H948.65H1043.64H1044.71H1139.7H1140.77H1235.76H1236.83H1331.82H1332.88H1427.87H1428.94H1523.93H1525V-485.932V-389.887V-388.819V-292.774V-291.706V-195.662V-194.594V-98.5488V-97.4807V-1.43604V-0.367981V95.6768V96.7448V192.79V193.858V289.902V290.97V387.015V388.083V484.128V485.196V581.241V582.309V620.726H1523.93V582.309H1428.94V620.726H1427.87V582.309H1332.88V620.726H1331.82V582.309H1236.83V620.726H1235.76V582.309H1140.77V620.726H1139.7V582.309H1044.71V620.726H1043.64V582.309H948.65V620.726H947.582V582.309H852.593V620.726H851.525V582.309H756.533V620.726H755.465V582.309H660.476V620.726H659.408V582.309H564.418V620.726H563.35V582.309H468.359V620.726H467.291V582.309H372.302V620.726H371.234V582.309H276.242V620.726H275.174V582.309H180.185V620.726H179.117V582.309H84.1247V620.726H83.0566V582.309H-11.9319V620.726H-13V582.309V581.241V485.196V484.128V388.083V387.015V290.97V289.902V193.858V192.79V96.7448V95.6768V-0.367981V-1.43604V-97.4807V-98.5488V-194.594V-195.662V-291.706V-292.774V-388.819V-389.887V-485.932V-487H-11.9319H83.0566H84.1247H179.117ZM1523.93 581.241V485.196H1428.94V581.241H1523.93ZM1523.93 484.128V388.083H1428.94V484.128H1523.93ZM1523.93 387.015V290.97H1428.94V387.015H1523.93ZM1523.93 289.902V193.858H1428.94V289.902H1523.93ZM1523.93 192.79V96.7448H1428.94V192.79H1523.93ZM1523.93 95.6768V-0.367981H1428.94V95.6768H1523.93ZM1523.93 -1.43604V-97.4807H1428.94V-1.43604H1523.93ZM1523.93 -98.5488V-194.594H1428.94V-98.5488H1523.93ZM1523.93 -195.662V-291.706H1428.94V-195.662H1523.93ZM1523.93 -292.774V-388.819H1428.94V-292.774H1523.93ZM1523.93 -389.887V-485.932H1428.94V-389.887H1523.93ZM1332.88 -485.932H1427.87V-389.887H1332.88V-485.932ZM1332.88 -388.819H1427.87V-292.774H1332.88V-388.819ZM1332.88 -291.706H1427.87V-195.662H1332.88V-291.706ZM1332.88 -194.594H1427.87V-98.5488H1332.88V-194.594ZM1332.88 -97.4807H1427.87V-1.43604H1332.88V-97.4807ZM1332.88 -0.367981H1427.87V95.6768H1332.88V-0.367981ZM1332.88 96.7448H1427.87V192.79H1332.88V96.7448ZM1332.88 193.858H1427.87V289.902H1332.88V193.858ZM1332.88 290.97H1427.87V387.015H1332.88V290.97ZM1332.88 388.083H1427.87V484.128H1332.88V388.083ZM1332.88 485.196H1427.87V581.241H1332.88V485.196ZM1331.82 581.241V485.196H1236.83V581.241H1331.82ZM1331.82 484.128V388.083H1236.83V484.128H1331.82ZM1331.82 387.015V290.97H1236.83V387.015H1331.82ZM1331.82 289.902V193.858H1236.83V289.902H1331.82ZM1331.82 192.79V96.7448H1236.83V192.79H1331.82ZM1331.82 95.6768V-0.367981H1236.83V95.6768H1331.82ZM1331.82 -1.43604V-97.4807H1236.83V-1.43604H1331.82ZM1331.82 -98.5488V-194.594H1236.83V-98.5488H1331.82ZM1331.82 -195.662V-291.706H1236.83V-195.662H1331.82ZM1331.82 -292.774V-388.819H1236.83V-292.774H1331.82ZM1331.82 -389.887V-485.932H1236.83V-389.887H1331.82ZM1140.77 -485.932H1235.76V-389.887H1140.77V-485.932ZM1140.77 -388.819H1235.76V-292.774H1140.77V-388.819ZM1140.77 -291.706H1235.76V-195.662H1140.77V-291.706ZM1140.77 -194.594H1235.76V-98.5488H1140.77V-194.594ZM1140.77 -97.4807H1235.76V-1.43604H1140.77V-97.4807ZM1140.77 -0.367981H1235.76V95.6768H1140.77V-0.367981ZM1140.77 96.7448H1235.76V192.79H1140.77V96.7448ZM1140.77 193.858H1235.76V289.902H1140.77V193.858ZM1140.77 290.97H1235.76V387.015H1140.77V290.97ZM1140.77 388.083H1235.76V484.128H1140.77V388.083ZM1140.77 485.196H1235.76V581.241H1140.77V485.196ZM1139.7 581.241V485.196H1044.71V581.241H1139.7ZM1139.7 484.128V388.083H1044.71V484.128H1139.7ZM1139.7 387.015V290.97H1044.71V387.015H1139.7ZM1139.7 289.902V193.858H1044.71V289.902H1139.7ZM1139.7 192.79V96.7448H1044.71V192.79H1139.7ZM1139.7 95.6768V-0.367981H1044.71V95.6768H1139.7ZM1139.7 -1.43604V-97.4807H1044.71V-1.43604H1139.7ZM1139.7 -98.5488V-194.594H1044.71V-98.5488H1139.7ZM1139.7 -195.662V-291.706H1044.71V-195.662H1139.7ZM1139.7 -292.774V-388.819H1044.71V-292.774H1139.7ZM1139.7 -389.887V-485.932H1044.71V-389.887H1139.7ZM948.65 -485.932H1043.64V-389.887H948.65V-485.932ZM948.65 -388.819H1043.64V-292.774H948.65V-388.819ZM948.65 -291.706H1043.64V-195.662H948.65V-291.706ZM948.65 -194.594H1043.64V-98.5488H948.65V-194.594ZM948.65 -97.4807H1043.64V-1.43604H948.65V-97.4807ZM948.65 -0.367981H1043.64V95.6768H948.65V-0.367981ZM948.65 96.7448H1043.64V192.79H948.65V96.7448ZM948.65 193.858H1043.64V289.902H948.65V193.858ZM948.65 290.97H1043.64V387.015H948.65V290.97ZM948.65 388.083H1043.64V484.128H948.65V388.083ZM948.65 485.196H1043.64V581.241H948.65V485.196ZM947.582 581.241V485.196H852.593V581.241H947.582ZM947.582 484.128V388.083H852.593V484.128H947.582ZM947.582 387.015V290.97H852.593V387.015H947.582ZM947.582 289.902V193.858H852.593V289.902H947.582ZM947.582 192.79V96.7448H852.593V192.79H947.582ZM947.582 95.6768V-0.367981H852.593V95.6768H947.582ZM947.582 -1.43604V-97.4807H852.593V-1.43604H947.582ZM947.582 -98.5488V-194.594H852.593V-98.5488H947.582ZM947.582 -195.662V-291.706H852.593V-195.662H947.582ZM947.582 -292.774V-388.819H852.593V-292.774H947.582ZM947.582 -389.887V-485.932H852.593V-389.887H947.582ZM756.533 -485.932H851.525V-389.887H756.533V-485.932ZM756.533 -388.819H851.525V-292.774H756.533V-388.819ZM756.533 -291.706H851.525V-195.662H756.533V-291.706ZM756.533 -194.594H851.525V-98.5488H756.533V-194.594ZM756.533 -97.4807H851.525V-1.43604H756.533V-97.4807ZM756.533 -0.367981H851.525V95.6768H756.533V-0.367981ZM756.533 96.7448H851.525V192.79H756.533V96.7448ZM756.533 193.858H851.525V289.902H756.533V193.858ZM756.533 290.97H851.525V387.015H756.533V290.97ZM756.533 388.083H851.525V484.128H756.533V388.083ZM756.533 485.196H851.525V581.241H756.533V485.196ZM755.465 581.241V485.196H660.476V581.241H755.465ZM755.465 484.128V388.083H660.476V484.128H755.465ZM755.465 387.015V290.97H660.476V387.015H755.465ZM755.465 289.902V193.858H660.476V289.902H755.465ZM755.465 192.79V96.7448H660.476V192.79H755.465ZM755.465 95.6768V-0.367981H660.476V95.6768H755.465ZM755.465 -1.43604V-97.4807H660.476V-1.43604H755.465ZM755.465 -98.5488V-194.594H660.476V-98.5488H755.465ZM755.465 -195.662V-291.706H660.476V-195.662H755.465ZM755.465 -292.774V-388.819H660.476V-292.774H755.465ZM755.465 -389.887V-485.932H660.476V-389.887H755.465ZM564.418 -485.932H659.408V-389.887H564.418V-485.932ZM564.418 -388.819H659.408V-292.774H564.418V-388.819ZM564.418 -291.706H659.408V-195.662H564.418V-291.706ZM564.418 -194.594H659.408V-98.5488H564.418V-194.594ZM564.418 -97.4807H659.408V-1.43604H564.418V-97.4807ZM564.418 -0.367981H659.408V95.6768H564.418V-0.367981ZM564.418 96.7448H659.408V192.79H564.418V96.7448ZM564.418 193.858H659.408V289.902H564.418V193.858ZM564.418 290.97H659.408V387.015H564.418V290.97ZM564.418 388.083H659.408V484.128H564.418V388.083ZM564.418 485.196H659.408V581.241H564.418V485.196ZM563.35 581.241V485.196H468.359V581.241H563.35ZM563.35 484.128V388.083H468.359V484.128H563.35ZM563.35 387.015V290.97H468.359V387.015H563.35ZM563.35 289.902V193.858H468.359V289.902H563.35ZM563.35 192.79V96.7448H468.359V192.79H563.35ZM563.35 95.6768V-0.367981H468.359V95.6768H563.35ZM563.35 -1.43604V-97.4807H468.359V-1.43604H563.35ZM563.35 -98.5488V-194.594H468.359V-98.5488H563.35ZM563.35 -195.662V-291.706H468.359V-195.662H563.35ZM563.35 -292.774V-388.819H468.359V-292.774H563.35ZM563.35 -389.887V-485.932H468.359V-389.887H563.35ZM372.302 -485.932H467.291V-389.887H372.302V-485.932ZM372.302 -388.819H467.291V-292.774H372.302V-388.819ZM372.302 -291.706H467.291V-195.662H372.302V-291.706ZM372.302 -194.594H467.291V-98.5488H372.302V-194.594ZM372.302 -97.4807H467.291V-1.43604H372.302V-97.4807ZM372.302 -0.367981H467.291V95.6768H372.302V-0.367981ZM372.302 96.7448H467.291V192.79H372.302V96.7448ZM372.302 193.858H467.291V289.902H372.302V193.858ZM372.302 290.97H467.291V387.015H372.302V290.97ZM372.302 388.083H467.291V484.128H372.302V388.083ZM372.302 485.196H467.291V581.241H372.302V485.196ZM371.234 581.241V485.196H276.242V581.241H371.234ZM371.234 484.128V388.083H276.242V484.128H371.234ZM371.234 387.015V290.97H276.242V387.015H371.234ZM371.234 289.902V193.858H276.242V289.902H371.234ZM371.234 192.79V96.7448H276.242V192.79H371.234ZM371.234 95.6768V-0.367981H276.242V95.6768H371.234ZM371.234 -1.43604V-97.4807H276.242V-1.43604H371.234ZM371.234 -98.5488V-194.594H276.242V-98.5488H371.234ZM371.234 -195.662V-291.706H276.242V-195.662H371.234ZM371.234 -292.774V-388.819H276.242V-292.774H371.234ZM371.234 -389.887V-485.932H276.242V-389.887H371.234ZM180.185 -485.932H275.174V-389.887H180.185V-485.932ZM180.185 -388.819H275.174V-292.774H180.185V-388.819ZM180.185 -291.706H275.174V-195.662H180.185V-291.706ZM180.185 -194.594H275.174V-98.5488H180.185V-194.594ZM180.185 -97.4807H275.174V-1.43604H180.185V-97.4807ZM180.185 -0.367981H275.174V95.6768H180.185V-0.367981ZM180.185 96.7448H275.174V192.79H180.185V96.7448ZM180.185 193.858H275.174V289.902H180.185V193.858ZM180.185 290.97H275.174V387.015H180.185V290.97ZM180.185 388.083H275.174V484.128H180.185V388.083ZM180.185 485.196H275.174V581.241H180.185V485.196ZM179.117 581.241V485.196H84.1247V581.241H179.117ZM179.117 484.128V388.083H84.1247V484.128H179.117ZM179.117 387.015V290.97H84.1247V387.015H179.117ZM179.117 289.902V193.858H84.1247V289.902H179.117ZM179.117 192.79V96.7448H84.1247V192.79H179.117ZM179.117 95.6768V-0.367981H84.1247V95.6768H179.117ZM179.117 -1.43604V-97.4807H84.1247V-1.43604H179.117ZM179.117 -98.5488V-194.594H84.1247V-98.5488H179.117ZM179.117 -195.662V-291.706H84.1247V-195.662H179.117ZM179.117 -292.774V-388.819H84.1247V-292.774H179.117ZM-11.9319 -485.932H83.0566V-389.887H-11.9319V-485.932ZM-11.9319 -388.819H83.0566V-292.774H-11.9319V-388.819ZM-11.9319 -291.706H83.0566V-195.662H-11.9319V-291.706ZM-11.9319 -194.594H83.0566V-98.5488H-11.9319V-194.594ZM-11.9319 -97.4807H83.0566V-1.43604H-11.9319V-97.4807ZM-11.9319 -0.367981H83.0566V95.6768H-11.9319V-0.367981ZM-11.9319 96.7448H83.0566V192.79H-11.9319V96.7448ZM-11.9319 193.858H83.0566V289.902H-11.9319V193.858ZM-11.9319 290.97H83.0566V387.015H-11.9319V290.97ZM-11.9319 388.083H83.0566V484.128H-11.9319V388.083ZM-11.9319 485.196H83.0566V581.241H-11.9319V485.196Z" fill="url(#paint0_radial_319_12972)"/>
</g>
<defs>
<radialGradient id="paint0_radial_319_12972" cx="0" cy="0" r="1" gradientUnits="userSpaceOnUse" gradientTransform="translate(756 -125.228) rotate(90) scale(745.954 1035.71)">
<stop stop-color="#C0C7FA"/>
<stop offset="1" stop-color="#D7E0ED" stop-opacity="0"/>
</radialGradient>
<clipPath id="clip0_319_12972">
<rect width="1512" height="600" fill="white"/>
</clipPath>
</defs>
</svg>
