<svg width="15" height="15" viewBox="0 0 15 15" fill="none" xmlns="http://www.w3.org/2000/svg">
<path fill-rule="evenodd" clip-rule="evenodd" d="M6.38165 0.539717C4.2278 0.801067 2.31442 2.04466 1.18557 3.9169C0.196085 5.55801 -0.0653206 7.59766 0.475755 9.45511C1.15719 11.7943 3.06036 13.6516 5.40568 14.2662C6.38275 14.5222 7.42812 14.5692 8.40172 14.401C11.2105 13.9156 13.4764 11.7211 14.0605 8.92079C14.1682 8.40468 14.1883 8.18101 14.1883 7.49892C14.1883 6.81683 14.1682 6.59316 14.0605 6.07705C13.8797 5.20996 13.5387 4.39197 13.0567 3.66857C12.7413 3.19514 12.5176 2.91979 12.1493 2.55155C11.1739 1.57612 9.94185 0.910223 8.60065 0.63356C7.95974 0.501381 7.02387 0.461787 6.38165 0.539717ZM10.5789 5.07865C10.8402 5.18606 10.9814 5.52271 10.8801 5.79678C10.8386 5.90933 10.5709 6.18859 8.87351 7.89045C7.68056 9.08655 6.87209 9.87659 6.80548 9.9114C6.66693 9.98375 6.43328 9.98787 6.29962 9.92031C6.17237 9.85602 4.2375 7.92876 4.14667 7.77586C3.94036 7.42848 4.182 6.9643 4.58663 6.93075C4.86488 6.90767 4.87535 6.91535 5.74619 7.78204L6.54626 8.57828L8.27548 6.852C9.22654 5.90254 10.0354 5.10999 10.073 5.09077C10.2316 5.00972 10.4014 5.00564 10.5789 5.07865Z" fill="#7F56D9"/>
</svg>
