<svg width="121" height="48" viewBox="0 0 121 48" fill="none" xmlns="http://www.w3.org/2000/svg">
<g clip-path="url(#clip0_296_9703)">
<path d="M39.9253 32.4265L41.3934 28.995C43.0009 30.1854 45.0975 30.8155 47.1947 30.8155C48.7325 30.8155 49.7109 30.2205 49.7109 29.3103C49.6758 26.7891 40.4496 28.7499 40.3794 22.4113C40.3443 19.1898 43.2104 16.7037 47.2649 16.7037C49.6758 16.7037 52.0878 17.2992 53.8 18.665L52.4281 22.1697C50.8527 21.1567 48.9069 20.4504 47.0549 20.4504C45.7968 20.4504 44.9577 21.0454 44.9577 21.8163C44.9928 24.3024 54.2897 22.9366 54.3945 28.995C54.3945 32.2866 51.5981 34.5978 47.6137 34.5978C44.6785 34.5978 41.9874 33.8976 39.9248 32.4265H39.9253ZM98.3833 27.7524C98.0128 28.4109 97.4737 28.9589 96.8215 29.3403C96.1692 29.7217 95.4273 29.9227 94.6717 29.9228C92.3169 29.9228 90.4082 28.0101 90.4082 25.6508C90.4082 23.2914 92.3169 21.3787 94.6717 21.3787C95.4273 21.3788 96.1692 21.5798 96.8215 21.9612C97.4737 22.3426 98.0128 22.8906 98.3833 23.5491L102.465 21.2835C100.936 18.5513 98.0199 16.7037 94.6717 16.7037C89.74 16.7037 85.7422 20.7091 85.7422 25.6508C85.7422 30.5919 89.74 34.5978 94.6717 34.5978C98.0199 34.5978 100.936 32.7502 102.465 30.018L98.3833 27.7524ZM57.043 34.2474H62.1456V9.25586H57.0435L57.043 34.2474ZM105.042 9.25586V34.2474H110.144V26.76L116.191 34.2474H122.713L115.024 25.3525L122.153 17.0526H115.911L110.144 23.9531V9.25586H105.042ZM77.8658 17.0536V19.0851C77.0272 17.6841 74.9651 16.7037 72.7983 16.7037C68.3248 16.7037 64.7951 20.661 64.7951 25.6332C64.7951 30.6055 68.3248 34.5978 72.7983 34.5978C74.9651 34.5978 77.0272 33.6174 77.8658 32.2164V34.2474H82.9684V17.0536H77.8658ZM77.8658 27.787C77.132 29.0125 75.5942 29.9223 73.882 29.9223C71.5267 29.9223 69.618 28.0101 69.618 25.6508C69.618 23.2914 71.5267 21.3787 73.882 21.3787C75.5942 21.3787 77.132 22.3241 77.8658 23.5842V27.787Z" fill="black"/>
<path d="M12.978 8.70361C11.3245 8.70361 9.98417 10.0469 9.98417 11.7035C9.98378 12.0971 10.0609 12.4868 10.2111 12.8506C10.3614 13.2143 10.5818 13.5449 10.8598 13.8235C11.1378 14.1021 11.468 14.3231 11.8314 14.4741C12.1949 14.6251 12.5845 14.703 12.978 14.7034H15.9724V11.7035C15.9731 10.9086 15.658 10.1461 15.0965 9.58348C14.5349 9.0209 13.7729 8.70441 12.978 8.70361ZM12.978 16.7033H4.99388C3.3403 16.7033 2 18.0466 2 19.7037C2 21.3603 3.3403 22.7036 4.99388 22.7036H12.9785C14.6316 22.7036 15.9724 21.3603 15.9724 19.7037C15.9724 18.0466 14.6316 16.7033 12.978 16.7033Z" fill="#36C5F0"/>
<path d="M31.9412 19.7037C31.9412 18.0466 30.6004 16.7033 28.9468 16.7033C27.2932 16.7033 25.9529 18.0466 25.9529 19.7037V22.7036H28.9468C29.7417 22.7028 30.5037 22.3863 31.0652 21.8237C31.6268 21.2612 31.9418 20.4986 31.9412 19.7037ZM23.957 19.7037V11.7035C23.9577 10.9086 23.6426 10.1461 23.081 9.58348C22.5195 9.0209 21.7575 8.70441 20.9626 8.70361C19.3091 8.70361 17.9688 10.0469 17.9688 11.7035V19.7032C17.9688 21.3608 19.3091 22.7041 20.9626 22.7041C21.7575 22.7033 22.5195 22.3868 23.081 21.8242C23.6426 21.2617 23.9577 20.4991 23.957 19.7042" fill="#2EB67D"/>
<path d="M20.9626 38.7036C21.7575 38.7028 22.5195 38.3863 23.081 37.8237C23.6426 37.2612 23.9577 36.4986 23.957 35.7037C23.9577 34.9088 23.6426 34.1463 23.081 33.5837C22.5195 33.0211 21.7575 32.7046 20.9626 32.7038H17.9688V35.7037C17.9688 37.3603 19.3091 38.7036 20.9626 38.7036ZM20.9626 30.7039H28.9473C30.6004 30.7039 31.9412 29.3606 31.9412 27.7035C31.9418 26.9086 31.6268 26.1461 31.0652 25.5835C30.5037 25.0209 29.7417 24.7044 28.9468 24.7036H20.9626C19.3091 24.7036 17.9688 26.0469 17.9688 27.7035C17.9684 28.0971 18.0455 28.4868 18.1957 28.8506C18.346 29.2143 18.5664 29.5449 18.8444 29.8235C19.1224 30.1021 19.4526 30.3231 19.816 30.4741C20.1794 30.6251 20.5691 30.703 20.9626 30.7034" fill="#ECB22E"/>
<path d="M2 27.7035C1.99961 28.0971 2.07673 28.4868 2.22697 28.8506C2.37722 29.2143 2.59763 29.5449 2.87564 29.8235C3.15365 30.1021 3.4838 30.3231 3.84725 30.4741C4.2107 30.6251 4.60032 30.703 4.99388 30.7034C5.78875 30.7026 6.55075 30.3861 7.11229 29.8235C7.67383 29.261 7.98892 28.4984 7.98826 27.7035V24.7036H4.99388C3.3403 24.7036 2 26.0469 2 27.7035ZM9.98417 27.7035V35.7032C9.98417 37.3603 11.3245 38.7036 12.9781 38.7036C13.7729 38.7028 14.5349 38.3863 15.0965 37.8237C15.658 37.2612 15.9731 36.4986 15.9724 35.7037V27.7035C15.9728 27.3099 15.8957 26.9201 15.7454 26.5563C15.5951 26.1925 15.3747 25.8619 15.0966 25.5833C14.8186 25.3048 14.4883 25.0837 14.1248 24.9327C13.7613 24.7818 13.3716 24.7039 12.9781 24.7036C11.3245 24.7036 9.98417 26.0469 9.98417 27.7035Z" fill="#E01E5A"/>
</g>
<defs>
<clipPath id="clip0_296_9703">
<rect width="121" height="48" fill="white"/>
</clipPath>
</defs>
</svg>
