<svg width="127" height="48" viewBox="0 0 127 48" fill="none" xmlns="http://www.w3.org/2000/svg">
<g clip-path="url(#clip0_296_9698)">
<path d="M29.1506 11.884C29.1253 11.707 28.9736 11.6059 28.8472 11.6059C28.7208 11.6059 26.2181 11.5554 26.2181 11.5554C26.2181 11.5554 24.1199 9.53297 23.9177 9.30545C23.7154 9.10321 23.3109 9.15377 23.1593 9.20433C23.1593 9.20433 22.7548 9.33073 22.0975 9.53297C21.9964 9.17905 21.8194 8.74929 21.5919 8.29426C20.8588 6.87858 19.7465 6.12019 18.4319 6.12019C18.3308 6.12019 18.255 6.12019 18.1538 6.14547C18.1033 6.09491 18.078 6.04435 18.0274 6.01907C17.446 5.41235 16.7129 5.10899 15.8281 5.13427C14.1343 5.18483 12.4406 6.42355 11.0502 8.59762C10.0896 10.1397 9.35644 12.061 9.12892 13.5525C7.18237 14.1592 5.81726 14.5889 5.7667 14.5889C4.78079 14.8923 4.75551 14.9176 4.62911 15.8529C4.57855 16.5608 2 36.5066 2 36.5066L23.6396 40.248L33.0184 37.9223C32.9931 37.9223 29.1759 12.061 29.1506 11.884ZM21.0105 9.88689C20.5049 10.0386 19.9487 10.2155 19.342 10.4178C19.342 9.55825 19.2156 8.34482 18.8364 7.33362C20.1257 7.53586 20.7577 9.00209 21.0105 9.88689ZM18.2044 10.7464C17.0668 11.1003 15.8281 11.4795 14.5894 11.8587C14.9433 10.5189 15.6006 9.20433 16.4095 8.31954C16.7129 7.9909 17.1426 7.63698 17.623 7.43474C18.1286 8.42066 18.2297 9.81105 18.2044 10.7464ZM15.8787 6.27187C16.2831 6.27187 16.6118 6.34771 16.8898 6.54995C16.4348 6.77746 15.9798 7.13138 15.5753 7.58642C14.4883 8.74929 13.654 10.5442 13.3254 12.2885C12.2889 12.6171 11.2777 12.9205 10.3676 13.1986C10.9744 10.443 13.2748 6.34771 15.8787 6.27187Z" fill="#95BF47"/>
<path d="M28.8473 11.6061C28.7209 11.6061 26.2182 11.5555 26.2182 11.5555C26.2182 11.5555 24.12 9.53312 23.9177 9.3056C23.8419 9.22976 23.7408 9.1792 23.6396 9.1792V40.2482L33.0185 37.9224C33.0185 37.9224 29.2012 12.0611 29.1759 11.8841C29.1254 11.7072 28.9737 11.6061 28.8473 11.6061Z" fill="#5E8E3E"/>
<path d="M18.4323 16.4337L17.3452 20.5038C17.3452 20.5038 16.1318 19.9476 14.6908 20.0487C12.5673 20.1751 12.5673 21.515 12.5673 21.8436C12.6937 23.6637 17.4716 24.0682 17.7497 28.3405C17.9519 31.7027 15.9801 34.0032 13.0982 34.1802C9.66015 34.3571 7.76416 32.3347 7.76416 32.3347L8.49728 29.2253C8.49728 29.2253 10.4185 30.6663 11.9353 30.5652C12.9213 30.5146 13.3005 29.6804 13.2499 29.1242C13.0982 26.7479 9.20511 26.8996 8.95231 22.9812C8.75008 19.6948 10.8989 16.3831 15.6515 16.0798C17.4969 15.9534 18.4323 16.4337 18.4323 16.4337Z" fill="white"/>
<path d="M45.7092 25.1052C44.6221 24.5238 44.066 24.0182 44.066 23.3356C44.066 22.4761 44.8496 21.9199 46.0631 21.9199C47.4788 21.9199 48.7427 22.5014 48.7427 22.5014L49.7287 19.4678C49.7287 19.4678 48.8186 18.76 46.1389 18.76C42.3975 18.76 39.7937 20.9088 39.7937 23.9171C39.7937 25.6361 41.0071 26.9254 42.625 27.8607C43.9396 28.5938 44.3946 29.1247 44.3946 29.9084C44.3946 30.7173 43.7373 31.3746 42.5239 31.3746C40.729 31.3746 39.01 30.4393 39.01 30.4393L37.9482 33.4728C37.9482 33.4728 39.5156 34.5346 42.17 34.5346C46.0125 34.5346 48.7933 32.6386 48.7933 29.2258C48.768 27.3804 47.3776 26.0658 45.7092 25.1052Z" fill="black"/>
<path d="M61.0288 18.7096C59.1329 18.7096 57.6413 19.6197 56.5038 20.9848L56.4532 20.9595L58.0964 12.3644H53.8241L49.6529 34.2567H53.9252L55.3409 26.7739C55.897 23.9426 57.3633 22.1982 58.7284 22.1982C59.689 22.1982 60.0682 22.8555 60.0682 23.7909C60.0682 24.3723 60.0177 25.1054 59.8913 25.6869L58.2733 34.2567H62.5456L64.2141 25.4088C64.3911 24.4734 64.5175 23.3611 64.5175 22.6027C64.5428 20.1759 63.2788 18.7096 61.0288 18.7096Z" fill="black"/>
<path d="M74.2246 18.7093C69.0675 18.7093 65.6547 23.3607 65.6547 28.5431C65.6547 31.8548 67.7024 34.5344 71.5449 34.5344C76.6009 34.5344 80.0137 30.0094 80.0137 24.7006C80.039 21.6417 78.2441 18.7093 74.2246 18.7093ZM72.1263 31.2733C70.6601 31.2733 70.0534 30.0346 70.0534 28.4673C70.0534 26.0151 71.3174 22.0209 73.6431 22.0209C75.1599 22.0209 75.6655 23.3355 75.6655 24.5995C75.6655 27.2286 74.3763 31.2733 72.1263 31.2733Z" fill="black"/>
<path d="M90.9857 18.7093C88.1038 18.7093 86.4606 21.2625 86.4606 21.2625H86.4101L86.6629 18.962H82.8709C82.6939 20.5041 82.34 22.8804 82.0114 24.65L79.0283 40.3235H83.3006L84.4888 33.9783H84.5899C84.5899 33.9783 85.4747 34.5345 87.0926 34.5345C92.1233 34.5345 95.4097 29.3774 95.4097 24.1697C95.4097 21.2878 94.1204 18.7093 90.9857 18.7093ZM86.8904 31.3239C85.7781 31.3239 85.1208 30.6919 85.1208 30.6919L85.8286 26.6977C86.3342 24.018 87.7246 22.2484 89.2161 22.2484C90.5307 22.2484 90.9352 23.4619 90.9352 24.5995C90.9352 27.3802 89.292 31.3239 86.8904 31.3239Z" fill="black"/>
<path d="M101.527 12.5665C100.162 12.5665 99.0745 13.6536 99.0745 15.044C99.0745 16.3079 99.8835 17.1927 101.097 17.1927H101.147C102.487 17.1927 103.625 16.2827 103.65 14.7153C103.65 13.4766 102.816 12.5665 101.527 12.5665Z" fill="black"/>
<path d="M95.5356 34.2312H99.8079L102.715 19.0633H98.4175L95.5356 34.2312Z" fill="black"/>
<path d="M113.61 19.0383H110.627L110.779 18.3304C111.032 16.8642 111.891 15.5749 113.332 15.5749C114.091 15.5749 114.698 15.8025 114.698 15.8025L115.532 12.4402C115.532 12.4402 114.799 12.061 113.206 12.061C111.689 12.061 110.172 12.4908 109.01 13.4767C107.543 14.7154 106.861 16.5103 106.532 18.3304L106.406 19.0383H104.409L103.777 22.2741H105.774L103.499 34.2568H107.771L110.046 22.2741H113.004L113.61 19.0383Z" fill="black"/>
<path d="M123.924 19.0633C123.924 19.0633 121.245 25.813 120.057 29.5039H120.006C119.93 28.3157 118.944 19.0633 118.944 19.0633H114.444L117.023 32.9925C117.074 33.2959 117.048 33.4981 116.922 33.7004C116.416 34.661 115.582 35.5963 114.596 36.2789C113.787 36.8603 112.877 37.2395 112.169 37.4923L113.357 41.1326C114.217 40.9557 116.037 40.2226 117.554 38.8069C119.5 36.9867 121.321 34.1554 123.166 30.3129L128.399 19.0633H123.924Z" fill="black"/>
</g>
<defs>
<clipPath id="clip0_296_9698">
<rect width="127" height="48" fill="white"/>
</clipPath>
</defs>
</svg>
