<svg width="117" height="48" viewBox="0 0 117 48" fill="none" xmlns="http://www.w3.org/2000/svg">
<path d="M35.1867 20.6688H24.4677L33.7504 15.3372L31.9096 12.1638L22.6257 17.4955L27.9841 8.26132L24.7949 6.42965L19.4354 15.6615V5.00049H15.7514V15.6627L10.3919 6.42965L7.20149 8.26132L12.5598 17.4932L3.27831 12.1638L1.43631 15.3372L10.719 20.6688H0V24.3333H10.7178L1.43631 29.665L3.27714 32.8383L12.561 27.5067L7.20149 36.7408L10.3907 38.5725L15.7514 29.3395V40.0005H19.4354V29.1108L24.8933 38.5142L27.8844 36.7968L22.4252 27.3912L31.9072 32.8372L33.7492 29.6638L24.4677 24.3322H35.1855V20.6688H35.1867ZM17.5934 27.4822C16.9357 27.4822 16.2845 27.3534 15.6769 27.1031C15.0693 26.8527 14.5172 26.4858 14.0522 26.0231C13.5871 25.5605 13.2182 25.0112 12.9664 24.4067C12.7147 23.8022 12.5851 23.1543 12.585 22.4999C12.5849 21.8456 12.7144 21.1976 12.966 20.593C13.2176 19.9884 13.5864 19.4391 14.0513 18.9763C14.5163 18.5136 15.0683 18.1465 15.6758 17.896C16.2834 17.6455 16.9346 17.5166 17.5922 17.5165C18.9203 17.5163 20.1941 18.0412 21.1334 18.9755C22.0726 19.9099 22.6004 21.1772 22.6005 22.4987C22.6007 23.8203 22.0732 25.0877 21.1342 26.0223C20.1952 26.9569 18.9215 27.482 17.5934 27.4822Z" fill="#625DF5"/>
<path d="M44.6836 35.3019V9.69824H49.4064V35.3019H44.6836ZM89.9808 17.9022H94.4902V20.0256C95.4493 18.3281 97.6876 17.4076 99.6047 17.4076C101.985 17.4076 103.902 18.4342 104.789 20.3067C106.173 18.1834 108.021 17.4076 110.33 17.4076C113.561 17.4076 116.649 19.3524 116.649 24.0202V35.3019H112.07V24.9757C112.07 23.1009 111.146 21.6857 108.979 21.6857C106.954 21.6857 105.746 23.2432 105.746 25.1181V35.3031H101.061V24.9757C101.061 23.1009 100.102 21.6857 97.9702 21.6857C95.9101 21.6857 94.7024 23.2082 94.7024 25.1181V35.3031H89.9808V17.9022ZM60.0797 35.8059C54.7589 35.8059 50.9061 31.8777 50.9061 26.6021C50.9061 21.4104 54.7472 17.3901 60.0797 17.3901C65.438 17.3901 69.2533 21.4477 69.2533 26.6021C69.2533 31.8404 65.3982 35.8059 60.0797 35.8059ZM60.0797 21.6484C58.7599 21.6503 57.4948 22.173 56.5619 23.1019C55.629 24.0308 55.1045 25.29 55.1036 26.6032C55.1045 27.9165 55.629 29.1757 56.5619 30.1046C57.4948 31.0335 58.7599 31.5562 60.0797 31.5581C61.3993 31.5559 62.6641 31.033 63.5967 30.1042C64.5294 29.1753 65.0537 27.9163 65.0546 26.6032C65.0537 25.2902 64.5294 24.0312 63.5967 23.1023C62.6641 22.1734 61.3993 21.6506 60.0797 21.6484ZM79.3404 35.8059C74.0195 35.8059 70.1667 31.8777 70.1667 26.6021C70.1667 21.4104 74.0078 17.3901 79.3404 17.3901C84.6987 17.3901 88.514 21.4477 88.514 26.6021C88.514 31.8404 84.6565 35.8059 79.3404 35.8059ZM79.3404 21.5889C78.0054 21.5911 76.7259 22.1199 75.7823 23.0595C74.8387 23.9991 74.308 25.2726 74.3068 26.6009C74.308 27.9292 74.8387 29.2028 75.7823 30.1423C76.7259 31.0819 78.0054 31.6107 79.3404 31.6129C80.6753 31.6107 81.9548 31.0819 82.8984 30.1423C83.842 29.2028 84.3727 27.9292 84.3739 26.6009C84.3727 25.2726 83.842 23.9991 82.8984 23.0595C81.9548 22.1199 80.6753 21.5911 79.3404 21.5889Z" fill="#212121"/>
</svg>
