<svg width="128" height="48" viewBox="0 0 128 48" fill="none" xmlns="http://www.w3.org/2000/svg">
<g clip-path="url(#clip0_296_9709)">
<path d="M46.172 24.0526C46.1762 22.2602 45.6261 20.5103 44.597 19.0428C43.5679 17.5752 42.1102 16.4617 40.4236 15.8549C40.5771 15.0726 40.6545 14.2773 40.6547 13.4801C40.6562 10.8413 39.8209 8.26997 38.2689 6.13585C36.7169 4.00172 34.5281 2.4147 32.0173 1.60296C29.5064 0.79122 26.8029 0.796569 24.2953 1.61824C21.7877 2.43991 19.6052 4.03558 18.0616 6.17583C16.9229 5.29337 15.5275 4.80608 14.087 4.78776C12.6464 4.76944 11.2391 5.2211 10.0783 6.07432C8.91746 6.92754 8.06631 8.13583 7.65377 9.51617C7.24123 10.8965 7.28978 12.3737 7.79207 13.724C6.10152 14.3402 4.64022 15.4593 3.60473 16.9308C2.56924 18.4024 2.00923 20.1557 2.00003 21.955C1.99534 23.7536 2.54832 25.5095 3.58284 26.9808C4.61736 28.4521 6.08255 29.5666 7.77666 30.1707C7.6267 30.9526 7.5502 31.7468 7.54817 32.543C7.54565 35.1787 8.38025 37.7471 9.93163 39.8779C11.483 42.0087 13.671 43.5918 16.1802 44.3988C18.6893 45.2059 21.3899 45.1953 23.8926 44.3685C26.3953 43.5416 28.5707 41.9414 30.1053 39.7984C31.2407 40.6831 32.6337 41.1733 34.0729 41.1948C35.5121 41.2163 36.9191 40.7678 38.0805 39.9174C39.2418 39.0671 40.0941 37.8611 40.5082 36.4826C40.9222 35.104 40.8754 33.6281 40.3749 32.2785C42.0663 31.6634 43.5286 30.5446 44.5646 29.0729C45.6007 27.6012 46.1608 25.8473 46.1695 24.0475" fill="white"/>
<path d="M19.366 19.9502L29.0323 24.3635L38.7884 15.8192C38.9289 15.1142 38.9986 14.3969 38.9963 13.678C38.9958 11.3507 38.2505 9.0846 36.8693 7.21135C35.4882 5.33811 33.5438 3.95605 31.3207 3.26742C29.0976 2.57879 26.7124 2.61973 24.5142 3.38425C22.316 4.14878 20.4202 5.59675 19.1042 7.51629L17.479 15.9219L19.366 19.9502Z" fill="#FEC514"/>
<path d="M9.36056 30.1865C9.21803 30.9025 9.14665 31.6309 9.14747 32.361C9.14752 34.6981 9.89669 36.9736 11.285 38.8535C12.6734 40.7335 14.6278 42.1189 16.8614 42.8065C19.095 43.4941 21.4902 43.4476 23.6954 42.6738C25.9006 41.9001 27.7998 40.4398 29.1141 38.5074L30.7238 30.1197L28.5749 26.0119L18.8728 21.5908L9.36056 30.1865Z" fill="#00BFB3"/>
<path d="M9.30175 13.4595L15.9256 15.0231L17.3762 7.49033C16.4753 6.80717 15.3773 6.43423 14.2466 6.42734C13.116 6.42046 12.0135 6.78 11.1043 7.45214C10.1951 8.12428 9.52813 9.07285 9.20317 10.1558C8.87822 11.2388 8.9128 12.3979 9.30175 13.4595Z" fill="#F04E98"/>
<path d="M8.72678 15.0361C7.27343 15.5266 6.00905 16.4577 5.10948 17.7001C4.20991 18.9425 3.71987 20.4343 3.70752 21.9681C3.70648 23.4505 4.15664 24.898 4.99818 26.1184C5.83971 27.3387 7.03275 28.274 8.41869 28.7999L17.7127 20.3994L16.0053 16.7537L8.72678 15.0361Z" fill="#1BA9F5"/>
<path d="M30.814 38.507C31.7134 39.1867 32.8087 39.5573 33.9361 39.5633C35.0635 39.5693 36.1625 39.2104 37.0692 38.5403C37.9759 37.8702 38.6414 36.9248 38.9665 35.8453C39.2916 34.7658 39.2588 33.61 38.873 32.5507L32.2543 31.0103L30.814 38.507Z" fill="#93C90E"/>
<path d="M32.1593 29.2673L39.4456 30.9695C40.8998 30.4804 42.165 29.5495 43.0648 28.3069C43.9646 27.0642 44.454 25.5717 44.4648 24.0375C44.4635 22.5582 44.0125 21.1144 43.1715 19.8974C42.3305 18.6805 41.1394 17.748 39.7562 17.2236L30.2261 25.5677L32.1593 29.2673Z" fill="#0077CC"/>
<path d="M63.7613 31.9115L64.6445 31.8216L64.7061 33.6188C62.7408 33.9156 60.7577 34.0785 58.7703 34.1066C56.5795 34.1066 55.027 33.4725 54.1131 32.2042C53.1991 30.9359 52.7429 28.9624 52.7446 26.2837C52.7446 20.9487 54.8653 18.2803 59.1066 18.2786C61.1605 18.2786 62.6924 18.852 63.7023 19.9988C64.7121 21.1455 65.2187 22.9427 65.2222 25.3903L65.1015 27.1259H55.0579C55.0579 28.8101 55.3625 30.0578 55.9718 30.8691C56.5812 31.6804 57.6407 32.0861 59.1503 32.0861C60.6633 32.0912 62.2003 32.033 63.7613 31.9115ZM62.9397 25.3081C62.9397 23.4408 62.6411 22.122 62.0437 21.3518C61.4464 20.5816 60.4725 20.1956 59.122 20.1939C57.7716 20.1939 56.7566 20.5995 56.0771 21.4108C55.3976 22.2221 55.0476 23.5212 55.027 25.3081H62.9397Z" fill="#1C1E23"/>
<path d="M68.4057 33.9859V13.9603H70.6882V33.9859H68.4057Z" fill="#1C1E23"/>
<path d="M85.0631 23.1772V30.8537C85.0631 31.6239 86.9578 31.5828 86.9578 31.5828L86.8423 33.6008C85.2377 33.6008 83.9103 33.7343 83.1144 32.9615C81.3909 33.727 79.524 34.1165 77.6382 34.104C76.2398 34.104 75.1744 33.7078 74.4418 32.9153C73.7092 32.1229 73.3438 30.9838 73.3455 29.4981C73.3455 28.0159 73.7212 26.9247 74.4726 26.2247C75.224 25.5246 76.4007 25.0968 78.0028 24.941L82.7807 24.4866V23.1772C82.7807 22.1502 82.5582 21.4091 82.1132 20.9538C81.8693 20.7249 81.5816 20.5478 81.2675 20.4331C80.9533 20.3184 80.6192 20.2684 80.2852 20.2863H74.2878V18.276H80.1337C81.859 18.276 83.1119 18.6723 83.8924 19.4647C84.6728 20.2572 85.0631 21.4947 85.0631 23.1772ZM75.6844 29.3852C75.6844 31.2525 76.4546 32.1862 77.9951 32.1862C79.3847 32.1846 80.7641 31.9476 82.0747 31.4853L82.773 31.2414V26.2196L78.2775 26.6457C77.3635 26.7279 76.7037 26.9915 76.298 27.4365C75.8924 27.8815 75.6878 28.5311 75.6844 29.3852Z" fill="#1C1E23"/>
<path d="M93.9743 20.3171C91.7612 20.3171 90.6546 21.0873 90.6546 22.6278C90.6546 23.3398 90.9114 23.8421 91.4249 24.1348C91.9383 24.4275 93.0945 24.7322 94.8934 25.0488C96.7009 25.3655 97.9794 25.8071 98.7291 26.3736C99.4788 26.9401 99.8545 28.0047 99.8562 29.5674C99.8562 31.1318 99.3538 32.2786 98.3491 33.0077C97.3444 33.7369 95.8784 34.1023 93.9512 34.104C92.6932 34.104 88.4929 33.6368 88.4929 33.6368L88.6161 31.6599C91.0295 31.8909 92.7728 32.0629 93.9512 32.0629C95.1296 32.0629 96.0256 31.8755 96.6444 31.5007C97.2631 31.1258 97.5712 30.4968 97.5712 29.6136C97.5712 28.7305 97.3145 28.1323 96.7805 27.8165C96.2464 27.5007 95.0962 27.2029 93.3119 26.9179C91.5276 26.6329 90.2567 26.217 89.507 25.6701C88.7573 25.1233 88.3799 24.1066 88.3799 22.6252C88.3799 21.1438 88.8934 20.0578 89.9486 19.3389C91.0038 18.6201 92.2978 18.2735 93.8588 18.2735C95.0962 18.2735 99.3915 18.5893 99.3915 18.5893V20.579C97.1245 20.4789 95.2708 20.3171 93.9743 20.3171Z" fill="#1C1E23"/>
<path d="M110.858 20.5585H106.018V27.8344C106.018 29.5786 106.145 30.7245 106.398 31.2722C106.655 31.8216 107.256 32.0938 108.208 32.0938L110.917 31.9115L111.071 33.7985C110.045 33.9881 109.007 34.1005 107.964 34.1348C106.383 34.1348 105.287 33.7489 104.678 32.9769C104.069 32.205 103.765 30.7339 103.766 28.5636V20.5585H101.615V18.5816H103.777V13.9243H106.028V18.5816H110.858V20.5585Z" fill="#1C1E23"/>
<path d="M114.031 16.6381V13.9885H116.313V16.6381H114.031ZM114.031 33.9859V18.5816H116.313V33.9859H114.031Z" fill="#1C1E23"/>
<path d="M126.2 18.276C127.34 18.3247 128.476 18.4473 129.6 18.6432L130.329 18.733L130.239 20.5893C129.046 20.4381 127.846 20.3473 126.645 20.3171C124.919 20.3171 123.748 20.7279 123.13 21.5495C122.512 22.371 122.202 23.8926 122.2 26.1143C122.2 28.3394 122.49 29.8867 123.068 30.7561C123.647 31.6256 124.853 32.0621 126.688 32.0655L130.283 31.7934L130.375 33.6804C128.976 33.9174 127.562 34.0598 126.144 34.1066C123.772 34.1066 122.134 33.4973 121.23 32.2786C120.326 31.06 119.874 29.006 119.874 26.1169C119.874 23.226 120.361 21.1969 121.335 20.0296C122.309 18.8623 123.931 18.2778 126.2 18.276Z" fill="#1C1E23"/>
</g>
<defs>
<clipPath id="clip0_296_9709">
<rect width="128" height="48" fill="white"/>
</clipPath>
</defs>
</svg>
