<svg width="117" height="48" viewBox="0 0 117 48" fill="none" xmlns="http://www.w3.org/2000/svg">
<g clip-path="url(#clip0_296_9718)">
<path d="M37.1867 20.6688H26.4677L35.7504 15.3372L33.9096 12.1638L24.6257 17.4955L29.9841 8.26132L26.7949 6.42965L21.4354 15.6615V5.00049H17.7514V15.6627L12.3919 6.42965L9.20149 8.26132L14.5598 17.4932L5.27831 12.1638L3.43631 15.3372L12.719 20.6688H2V24.3333H12.7178L3.43631 29.665L5.27714 32.8383L14.561 27.5067L9.20149 36.7408L12.3907 38.5725L17.7514 29.3395V40.0005H21.4354V29.1108L26.8933 38.5142L29.8844 36.7968L24.4252 27.3912L33.9072 32.8372L35.7492 29.6638L26.4677 24.3322H37.1855V20.6688H37.1867ZM19.5934 27.4822C18.9357 27.4822 18.2845 27.3534 17.6769 27.1031C17.0693 26.8527 16.5172 26.4858 16.0522 26.0231C15.5871 25.5605 15.2182 25.0112 14.9664 24.4067C14.7147 23.8022 14.5851 23.1543 14.585 22.4999C14.5849 21.8456 14.7144 21.1976 14.966 20.593C15.2176 19.9884 15.5864 19.4391 16.0513 18.9763C16.5163 18.5136 17.0683 18.1465 17.6758 17.896C18.2834 17.6455 18.9346 17.5166 19.5922 17.5165C20.9203 17.5163 22.1941 18.0412 23.1334 18.9755C24.0726 19.9099 24.6004 21.1772 24.6005 22.4987C24.6007 23.8203 24.0732 25.0877 23.1342 26.0223C22.1952 26.9569 20.9215 27.482 19.5934 27.4822Z" fill="#625DF5"/>
<path d="M46.6831 35.3019V9.69824H51.4059V35.3019H46.6831ZM91.9803 17.9022H96.4897V20.0256C97.4488 18.3281 99.6871 17.4076 101.604 17.4076C103.984 17.4076 105.901 18.4342 106.789 20.3067C108.173 18.1834 110.02 17.4076 112.329 17.4076C115.56 17.4076 118.649 19.3524 118.649 24.0202V35.3019H114.069V24.9757C114.069 23.1009 113.145 21.6857 110.978 21.6857C108.953 21.6857 107.746 23.2432 107.746 25.1181V35.3031H103.06V24.9757C103.06 23.1009 102.101 21.6857 99.9697 21.6857C97.9096 21.6857 96.702 23.2082 96.702 25.1181V35.3031H91.9803V17.9022ZM62.0792 35.8059C56.7584 35.8059 52.9056 31.8777 52.9056 26.6021C52.9056 21.4104 56.7467 17.3901 62.0792 17.3901C67.4375 17.3901 71.2528 21.4477 71.2528 26.6021C71.2528 31.8404 67.3977 35.8059 62.0792 35.8059ZM62.0792 21.6484C60.7594 21.6503 59.4943 22.173 58.5614 23.1019C57.6285 24.0308 57.104 25.29 57.1031 26.6032C57.104 27.9165 57.6285 29.1757 58.5614 30.1046C59.4943 31.0335 60.7594 31.5562 62.0792 31.5581C63.3988 31.5559 64.6636 31.033 65.5963 30.1042C66.5289 29.1753 67.0532 27.9163 67.0541 26.6032C67.0532 25.2902 66.5289 24.0312 65.5963 23.1023C64.6636 22.1734 63.3988 21.6506 62.0792 21.6484ZM81.3399 35.8059C76.0191 35.8059 72.1662 31.8777 72.1662 26.6021C72.1662 21.4104 76.0073 17.3901 81.3399 17.3901C86.6982 17.3901 90.5135 21.4477 90.5135 26.6021C90.5135 31.8404 86.656 35.8059 81.3399 35.8059ZM81.3399 21.5889C80.0049 21.5911 78.7254 22.1199 77.7818 23.0595C76.8382 23.9991 76.3076 25.2726 76.3063 26.6009C76.3076 27.9292 76.8382 29.2028 77.7818 30.1423C78.7254 31.0819 80.0049 31.6107 81.3399 31.6129C82.6748 31.6107 83.9544 31.0819 84.898 30.1423C85.8416 29.2028 86.3722 27.9292 86.3734 26.6009C86.3722 25.2726 85.8416 23.9991 84.898 23.0595C83.9544 22.1199 82.6748 21.5911 81.3399 21.5889Z" fill="#212121"/>
</g>
<defs>
<clipPath id="clip0_296_9718">
<rect width="117" height="48" fill="white"/>
</clipPath>
</defs>
</svg>
