<svg width="129" height="48" viewBox="0 0 129 48" fill="none" xmlns="http://www.w3.org/2000/svg">
<g clip-path="url(#clip0_305_9679)">
<path d="M44.672 24.0526C44.6762 22.2602 44.1261 20.5103 43.097 19.0428C42.0679 17.5752 40.6102 16.4617 38.9236 15.8549C39.0771 15.0726 39.1545 14.2773 39.1547 13.4801C39.1562 10.8413 38.3209 8.26997 36.7689 6.13585C35.2169 4.00172 33.0281 2.4147 30.5173 1.60296C28.0064 0.79122 25.3029 0.796569 22.7953 1.61824C20.2877 2.43991 18.1052 4.03558 16.5616 6.17583C15.4229 5.29337 14.0275 4.80608 12.587 4.78776C11.1464 4.76944 9.73914 5.2211 8.5783 6.07432C7.41746 6.92754 6.56631 8.13583 6.15377 9.51617C5.74123 10.8965 5.78978 12.3737 6.29207 13.724C4.60152 14.3402 3.14022 15.4593 2.10473 16.9308C1.06924 18.4024 0.509231 20.1557 0.50003 21.955C0.495339 23.7536 1.04832 25.5095 2.08284 26.9808C3.11736 28.4521 4.58255 29.5666 6.27666 30.1707C6.1267 30.9526 6.0502 31.7468 6.04817 32.543C6.04565 35.1787 6.88025 37.7471 8.43163 39.8779C9.98302 42.0087 12.171 43.5918 14.6802 44.3988C17.1893 45.2059 19.8899 45.1953 22.3926 44.3685C24.8953 43.5416 27.0707 41.9414 28.6053 39.7984C29.7407 40.6831 31.1337 41.1733 32.5729 41.1948C34.0121 41.2163 35.4191 40.7678 36.5805 39.9174C37.7418 39.0671 38.5941 37.8611 39.0082 36.4826C39.4222 35.104 39.3754 33.6281 38.8749 32.2785C40.5663 31.6634 42.0286 30.5446 43.0646 29.0729C44.1007 27.6012 44.6608 25.8473 44.6695 24.0475" fill="white"/>
<path d="M17.8655 19.9502L27.5318 24.3635L37.2879 15.8192C37.4284 15.1142 37.4981 14.3969 37.4958 13.678C37.4953 11.3507 36.75 9.0846 35.3688 7.21135C33.9877 5.33811 32.0433 3.95605 29.8202 3.26742C27.5971 2.57879 25.2119 2.61973 23.0137 3.38425C20.8155 4.14878 18.9197 5.59675 17.6037 7.51629L15.9785 15.9219L17.8655 19.9502Z" fill="#FEC514"/>
<path d="M7.86056 30.1865C7.71803 30.9025 7.64665 31.6309 7.64747 32.361C7.64752 34.6981 8.39669 36.9736 9.78502 38.8535C11.1734 40.7335 13.1278 42.1189 15.3614 42.8065C17.595 43.4941 19.9902 43.4476 22.1954 42.6738C24.4006 41.9001 26.2998 40.4398 27.6141 38.5074L29.2238 30.1197L27.0749 26.0119L17.3728 21.5908L7.86056 30.1865Z" fill="#00BFB3"/>
<path d="M7.80175 13.4595L14.4256 15.0231L15.8762 7.49033C14.9753 6.80717 13.8773 6.43423 12.7466 6.42734C11.616 6.42046 10.5135 6.78 9.60434 7.45214C8.69514 8.12428 8.02813 9.07285 7.70317 10.1558C7.37822 11.2388 7.4128 12.3979 7.80175 13.4595Z" fill="#F04E98"/>
<path d="M7.22629 15.0361C5.77294 15.5266 4.50856 16.4577 3.60899 17.7001C2.70942 18.9425 2.21938 20.4343 2.20703 21.9681C2.20599 23.4505 2.65616 24.898 3.49769 26.1184C4.33923 27.3387 5.53226 28.274 6.9182 28.7999L16.2122 20.3994L14.5048 16.7537L7.22629 15.0361Z" fill="#1BA9F5"/>
<path d="M29.3135 38.507C30.213 39.1867 31.3082 39.5573 32.4356 39.5633C33.563 39.5693 34.6621 39.2104 35.5687 38.5403C36.4754 37.8702 37.141 36.9248 37.4661 35.8453C37.7912 34.7658 37.7583 33.61 37.3725 32.5507L30.7538 31.0103L29.3135 38.507Z" fill="#93C90E"/>
<path d="M30.6598 29.2673L37.9461 30.9695C39.4002 30.4804 40.6655 29.5495 41.5653 28.3069C42.465 27.0642 42.9545 25.5717 42.9653 24.0375C42.964 22.5582 42.5129 21.1144 41.672 19.8974C40.831 18.6805 39.6399 17.748 38.2567 17.2236L28.7266 25.5677L30.6598 29.2673Z" fill="#0077CC"/>
<path d="M62.2608 31.9115L63.144 31.8216L63.2056 33.6188C61.2403 33.9156 59.2572 34.0785 57.2698 34.1066C55.079 34.1066 53.5266 33.4725 52.6126 32.2042C51.6986 30.9359 51.2424 28.9624 51.2441 26.2837C51.2441 20.9487 53.3648 18.2803 57.6061 18.2786C59.6601 18.2786 61.1919 18.852 62.2018 19.9988C63.2116 21.1455 63.7182 22.9427 63.7217 25.3903L63.601 27.1259H53.5574C53.5574 28.8101 53.862 30.0578 54.4714 30.8691C55.0807 31.6804 56.1402 32.0861 57.6498 32.0861C59.1628 32.0912 60.6999 32.033 62.2608 31.9115ZM61.4393 25.3081C61.4393 23.4408 61.1406 22.122 60.5432 21.3518C59.9459 20.5816 58.972 20.1956 57.6216 20.1939C56.2711 20.1939 55.2561 20.5995 54.5766 21.4108C53.8971 22.2221 53.5471 23.5212 53.5266 25.3081H61.4393Z" fill="#1C1E23"/>
<path d="M66.9052 33.9859V13.9603H69.1877V33.9859H66.9052Z" fill="#1C1E23"/>
<path d="M83.5626 23.1772V30.8537C83.5626 31.6239 85.4573 31.5828 85.4573 31.5828L85.3418 33.6008C83.7372 33.6008 82.4098 33.7343 81.614 32.9615C79.8904 33.727 78.0235 34.1165 76.1377 34.104C74.7393 34.104 73.6739 33.7078 72.9413 32.9153C72.2087 32.1229 71.8433 30.9838 71.845 29.4981C71.845 28.0159 72.2207 26.9247 72.9721 26.2247C73.7235 25.5246 74.9002 25.0968 76.5023 24.941L81.2802 24.4866V23.1772C81.2802 22.1502 81.0577 21.4091 80.6127 20.9538C80.3688 20.7249 80.0811 20.5478 79.767 20.4331C79.4528 20.3184 79.1187 20.2684 78.7847 20.2863H72.7873V18.276H78.6332C80.3585 18.276 81.6114 18.6723 82.3919 19.4647C83.1724 20.2572 83.5626 21.4947 83.5626 23.1772ZM74.1839 29.3852C74.1839 31.2525 74.9541 32.1862 76.4946 32.1862C77.8843 32.1846 79.2636 31.9476 80.5742 31.4853L81.2725 31.2414V26.2196L76.777 26.6457C75.863 26.7279 75.2032 26.9915 74.7975 27.4365C74.3919 27.8815 74.1873 28.5311 74.1839 29.3852Z" fill="#1C1E23"/>
<path d="M92.4738 20.3171C90.2607 20.3171 89.1542 21.0873 89.1542 22.6278C89.1542 23.3398 89.4109 23.8421 89.9244 24.1348C90.4379 24.4275 91.594 24.7322 93.3929 25.0488C95.2004 25.3655 96.4789 25.8071 97.2286 26.3736C97.9783 26.9401 98.354 28.0047 98.3557 29.5674C98.3557 31.1318 97.8533 32.2786 96.8486 33.0077C95.8439 33.7369 94.378 34.1023 92.4507 34.104C91.1927 34.104 86.9924 33.6368 86.9924 33.6368L87.1156 31.6599C89.529 31.8909 91.2723 32.0629 92.4507 32.0629C93.6291 32.0629 94.5252 31.8755 95.1439 31.5007C95.7626 31.1258 96.0707 30.4968 96.0707 29.6136C96.0707 28.7305 95.814 28.1323 95.28 27.8165C94.7459 27.5007 93.5958 27.2029 91.8114 26.9179C90.0271 26.6329 88.7562 26.217 88.0065 25.6701C87.2569 25.1233 86.8795 24.1066 86.8795 22.6252C86.8795 21.1438 87.3929 20.0578 88.4481 19.3389C89.5033 18.6201 90.7973 18.2735 92.3583 18.2735C93.5958 18.2735 97.891 18.5893 97.891 18.5893V20.579C95.624 20.4789 93.7703 20.3171 92.4738 20.3171Z" fill="#1C1E23"/>
<path d="M109.357 20.5585H104.518V27.8344C104.518 29.5786 104.644 30.7245 104.898 31.2722C105.154 31.8216 105.755 32.0938 106.708 32.0938L109.416 31.9115L109.57 33.7985C108.545 33.9881 107.506 34.1005 106.464 34.1348C104.882 34.1348 103.787 33.7489 103.177 32.9769C102.568 32.205 102.264 30.7339 102.266 28.5636V20.5585H100.114V18.5816H102.276V13.9243H104.528V18.5816H109.357V20.5585Z" fill="#1C1E23"/>
<path d="M112.53 16.6381V13.9885H114.813V16.6381H112.53ZM112.53 33.9859V18.5816H114.813V33.9859H112.53Z" fill="#1C1E23"/>
<path d="M124.7 18.276C125.84 18.3247 126.975 18.4473 128.099 18.6432L128.828 18.733L128.738 20.5893C127.546 20.4381 126.346 20.3473 125.144 20.3171C123.419 20.3171 122.247 20.7279 121.629 21.5495C121.011 22.371 120.702 23.8926 120.7 26.1143C120.7 28.3394 120.989 29.8867 121.568 30.7561C122.146 31.6256 123.353 32.0621 125.188 32.0655L128.782 31.7934L128.874 33.6804C127.475 33.9174 126.062 34.0598 124.643 34.1066C122.271 34.1066 120.633 33.4973 119.729 32.2786C118.826 31.06 118.374 29.006 118.374 26.1169C118.374 23.226 118.861 21.1969 119.835 20.0296C120.809 18.8623 122.43 18.2778 124.7 18.276Z" fill="#1C1E23"/>
</g>
<defs>
<clipPath id="clip0_305_9679">
<rect width="128" height="48" fill="white" transform="translate(0.5)"/>
</clipPath>
</defs>
</svg>
