<svg width="17" height="16" viewBox="0 0 17 16" fill="none" xmlns="http://www.w3.org/2000/svg">
<path fill-rule="evenodd" clip-rule="evenodd" d="M15.9587 2.27036e-06H1.72875C1.61246 -0.000261436 1.49726 0.0224498 1.38977 0.0668318C1.28227 0.111214 1.18461 0.176392 1.10237 0.258625C1.02014 0.340857 0.954964 0.438523 0.910582 0.546016C0.8662 0.653508 0.843489 0.768708 0.843752 0.885002V15.115C0.843752 15.605 1.23875 16 1.72875 16H9.38775V9.803H7.29775V7.403H9.38775V5.62C9.38775 3.551 10.6578 2.431 12.4918 2.431C13.3668 2.431 14.1348 2.484 14.3588 2.527V4.682H13.0678C12.0648 4.682 11.8837 5.151 11.8837 5.855V7.402H14.2628L13.9528 9.802H11.8837V16H15.9587C16.4487 16 16.8437 15.605 16.8437 15.115V0.885002C16.844 0.768708 16.8213 0.653508 16.7769 0.546016C16.7325 0.438523 16.6674 0.340857 16.5851 0.258625C16.5029 0.176392 16.4052 0.111214 16.2977 0.0668318C16.1902 0.0224498 16.075 -0.000261436 15.9587 2.27036e-06Z" fill="#8D4DDE"/>
</svg>
