<svg width="142" height="142" viewBox="0 0 142 142" fill="none" xmlns="http://www.w3.org/2000/svg">
<rect x="11" y="11" width="120" height="120" rx="60" fill="#F4EBFF"/>
<rect x="11" y="11" width="120" height="120" rx="60" stroke="#F9F5FF" stroke-width="21.4286"/>
<path d="M96.0005 68.7001V71.0001C95.9974 76.3912 94.2517 81.6368 91.0238 85.9547C87.7959 90.2726 83.2587 93.4313 78.0889 94.9599C72.9191 96.4885 67.3936 96.3049 62.3367 94.4366C57.2797 92.5683 52.9621 89.1154 50.0279 84.5928C47.0937 80.0702 45.7 74.7203 46.0547 69.3409C46.4094 63.9616 48.4935 58.841 51.9962 54.7428C55.4989 50.6447 60.2325 47.7886 65.491 46.6005C70.7495 45.4124 76.2512 45.956 81.1755 48.1502M96.0005 51.0002L71.0005 76.0252L63.5005 68.5252" stroke="#7F56D9" stroke-width="5" stroke-linecap="round" stroke-linejoin="round"/>
</svg>
