<svg width="22" height="25" viewBox="0 0 22 25" fill="none" xmlns="http://www.w3.org/2000/svg">
<path fill-rule="evenodd" clip-rule="evenodd" d="M9.41979 0.567406C6.2841 1.02529 3.72469 3.36059 2.99861 6.42638C2.82434 7.16216 2.7715 7.73811 2.80324 8.55552C2.84802 9.7084 3.07757 10.6107 3.58539 11.6299C3.86408 12.1892 9.78316 21.467 10.0251 21.7238C10.2055 21.9152 10.4587 21.9904 10.702 21.9249C10.7996 21.8986 10.9445 21.8081 11.0241 21.7238C11.2424 21.4924 17.2063 12.1664 17.4635 11.6542C18.2431 10.1014 18.4651 8.21348 18.0694 6.50313C17.8487 5.54933 17.3974 4.55033 16.8174 3.73123C16.4142 3.16198 15.594 2.34181 15.0248 1.93863C14.2547 1.39326 13.286 0.944416 12.3765 0.711533C11.5464 0.498999 10.3034 0.438375 9.41979 0.567406ZM11.3558 4.83324C12.5907 5.11882 13.6249 6.15884 13.9318 7.42364C14.0322 7.83769 14.0322 8.62528 13.9318 9.03933C13.6227 10.3136 12.6066 11.3296 11.3324 11.6387C10.9183 11.7392 10.1307 11.7392 9.71668 11.6387C8.44246 11.3296 7.42639 10.3136 7.11727 9.03933C7.01684 8.62528 7.01684 7.83769 7.11727 7.42364C7.37875 6.34578 8.164 5.42456 9.1803 5.00329C9.47409 4.88153 9.63031 4.84144 10.1963 4.74256C10.3868 4.70927 11.041 4.76047 11.3558 4.83324ZM4.31213 16.8335C3.4708 17.0709 2.8798 17.2949 2.20225 17.6332C1.13804 18.1646 0.496494 18.7375 0.152773 19.4634C0.00845753 19.7681 -0.0012947 19.8203 0.000111884 20.2812C0.00189355 20.8798 0.0885389 21.1324 0.458423 21.6174C1.7793 23.3497 5.79635 24.5 10.5245 24.5C15.2527 24.5 19.2698 23.3497 20.5906 21.6174C20.9605 21.1324 21.0472 20.8798 21.0489 20.2812C21.0503 19.8203 21.0406 19.7681 20.8963 19.4634C20.6684 18.9821 20.3192 18.5865 19.732 18.1441C19.3169 17.8315 18.2308 17.3146 17.4402 17.0535C16.7447 16.8237 16.0266 16.6352 15.9952 16.6743C15.9863 16.6854 15.179 17.9483 14.2012 19.4809C13.1812 21.0796 12.3193 22.3804 12.1792 22.5326C11.4735 23.2992 10.272 23.4576 9.32222 22.9092C9.18958 22.8326 8.97222 22.6478 8.8392 22.4985C8.70614 22.3491 7.80096 20.9821 6.82761 19.4607C5.5554 17.4721 5.03215 16.6916 4.96633 16.6846C4.91597 16.6792 4.62157 16.7462 4.31213 16.8335Z" fill="url(#paint0_linear_321_14657)"/>
<defs>
<linearGradient id="paint0_linear_321_14657" x1="-1.31454" y1="12.5" x2="44.6298" y2="12.5" gradientUnits="userSpaceOnUse">
<stop stop-color="#8932F6"/>
<stop offset="1" stop-color="#1B152B" stop-opacity="0"/>
</linearGradient>
</defs>
</svg>
