<svg width="58" height="57" viewBox="0 0 58 57" fill="none" xmlns="http://www.w3.org/2000/svg">
<path fill-rule="evenodd" clip-rule="evenodd" d="M52.8327 27.2983V39.8931C52.8327 41.5956 52.1408 43.1393 51.0265 44.2536C49.9122 45.3679 48.3685 46.0598 46.6661 46.0598H9.33267C7.63021 46.0598 6.0865 45.3679 4.97219 44.2536C3.85789 43.1393 3.16602 41.5956 3.16602 39.8931V16.5598C3.16602 14.8499 3.86396 13.3001 4.98682 12.1847C6.09999 11.079 7.63769 10.3931 9.33267 10.3931H35.9276C35.547 11.3429 35.2752 12.3481 35.1277 13.3931H9.33267C9.0659 13.3931 8.80704 13.426 8.5598 13.4879L27.4458 30.3941L27.4471 30.3953C27.7623 30.6742 28.236 30.6744 28.5513 30.3956L28.553 30.3941L37.2775 22.5799C37.8465 23.4079 38.5089 24.1667 39.2495 24.8411L37.1473 26.7239L49.7315 40.6918C49.7976 40.4368 49.8327 40.1692 49.8327 39.8931V28.0982C50.8778 27.9507 51.8829 27.6789 52.8327 27.2983ZM34.9126 28.7255L47.6784 42.8949C47.3607 43.002 47.0204 43.0598 46.6661 43.0598H9.33267C9.0153 43.0598 8.70914 43.0134 8.42037 42.9268L21.8953 29.4519L25.4487 32.6328L25.4527 32.6363C26.9051 33.9273 29.0937 33.9273 30.5461 32.6363L30.5503 32.6326L34.9126 28.7255ZM19.6567 27.4479L6.29906 40.8054C6.21245 40.5167 6.16602 40.2105 6.16602 39.8931V16.5598C6.16602 16.1974 6.22656 15.8496 6.33834 15.5257L19.6567 27.4479Z" fill="white"/>
<path d="M48 23.7266C52.6944 23.7266 56.5 19.921 56.5 15.2266C56.5 10.5321 52.6944 6.72656 48 6.72656C43.3056 6.72656 39.5 10.5321 39.5 15.2266C39.5 19.921 43.3056 23.7266 48 23.7266Z" fill="#7F56D9" stroke="white" stroke-width="3"/>
</svg>
