<svg width="17" height="16" viewBox="0 0 17 16" fill="none" xmlns="http://www.w3.org/2000/svg">
<path fill-rule="evenodd" clip-rule="evenodd" d="M15.6597 0C16.3097 0 16.8438 0.512 16.8438 1.152V14.848C16.8438 15.478 16.3108 16 15.6597 16H2.02775C1.37775 16 0.84375 15.477 0.84375 14.848V1.152C0.84375 0.512 1.37675 0 2.02775 0H15.6597ZM4.40675 4.96C4.76671 4.95031 5.10868 4.80051 5.35985 4.54249C5.61103 4.28446 5.75158 3.93859 5.75158 3.5785C5.75158 3.21841 5.61103 2.87254 5.35985 2.61451C5.10868 2.35648 4.76671 2.20669 4.40675 2.197C3.63875 2.197 3.03075 2.816 3.03075 3.573C3.03075 4.341 3.63875 4.96 4.40675 4.96ZM14.4757 9.45C14.4757 7.392 14.0388 5.813 11.6278 5.813C10.4757 5.813 9.70775 6.443 9.38775 7.04H9.35575V5.995H7.08375V13.632H9.45175V9.856C9.45175 8.864 9.63275 7.893 10.8708 7.893C12.0868 7.893 12.1077 9.035 12.1077 9.92V13.632H14.4757V9.45ZM3.21175 13.633H5.59075V5.995H3.21175V13.633Z" fill="#8D4DDE"/>
</svg>
