<svg width="165" height="47" viewBox="0 0 165 47" fill="none" xmlns="http://www.w3.org/2000/svg">
<g clip-path="url(#clip0_296_9775)">
<g clip-path="url(#clip1_296_9775)">
<path d="M164.489 19.7887C165.451 20.8085 165.935 22.1911 165.935 23.9429V33.1585H162.368V24.9877C162.368 23.9554 162.077 23.1421 161.494 22.5477C160.911 21.9534 160.123 21.6531 159.125 21.6531C157.946 21.6719 157.01 22.0785 156.321 22.8668C155.633 23.6551 155.286 24.6686 155.286 25.9011V33.1585H151.744V12.6815H155.286V21.2089C156.284 19.2757 158.039 18.2934 160.545 18.2559C162.207 18.2559 163.528 18.7627 164.489 19.7887ZM143.868 21.4279C142.689 21.4279 141.728 21.8345 140.996 22.6416C140.264 23.4549 139.892 24.4997 139.892 25.7885C139.892 27.1149 140.264 28.1784 140.996 28.9918C141.734 29.7988 142.689 30.2055 143.874 30.2055C145.617 30.2055 146.925 29.6237 147.8 28.4662L150.008 30.3181C149.357 31.2753 148.463 32.0386 147.422 32.5266C146.349 33.0396 145.108 33.2961 143.688 33.2961C142.255 33.2961 140.978 32.9833 139.861 32.3577C138.764 31.7508 137.858 30.8311 137.263 29.7238C136.642 28.5914 136.332 27.29 136.332 25.8198C136.332 24.3308 136.649 23.0107 137.275 21.8721C137.877 20.7522 138.788 19.8387 139.892 19.2256C141.009 18.6 142.292 18.2872 143.75 18.2872C145.077 18.2872 146.262 18.5187 147.304 18.9879C148.346 19.4571 149.195 20.1265 149.853 20.9899L147.701 23.0608C146.702 21.9722 145.431 21.4279 143.868 21.4279ZM134.069 18.3935V33.1585H130.527V30.8124C130.025 31.6007 129.324 32.2451 128.499 32.6768C127.674 33.1084 126.725 33.3274 125.652 33.3274C124.269 33.3274 123.06 33.0083 122.012 32.3765C120.97 31.7446 120.151 30.8499 119.574 29.6987C118.998 28.5476 118.706 27.2275 118.706 25.7385C118.706 24.2682 118.998 22.9669 119.581 21.8345C120.157 20.7021 120.976 19.8262 122.018 19.2006C123.06 18.575 124.263 18.2621 125.628 18.2621C126.701 18.2621 127.656 18.4811 128.487 18.9128C129.318 19.3445 130.025 19.9826 130.527 20.7772V18.406L134.069 18.3935ZM129.243 29.2233C129.988 28.4975 130.416 27.534 130.527 26.3391V25.2943C130.416 24.0931 129.994 23.1358 129.25 22.4101C128.505 21.6844 127.563 21.3215 126.415 21.3215C125.2 21.3215 124.207 21.7407 123.445 22.579C122.682 23.4174 122.291 24.4997 122.272 25.8198C122.291 27.1462 122.682 28.2222 123.445 29.0606C124.207 29.8989 125.2 30.3181 126.415 30.3181C127.556 30.3181 128.499 29.9552 129.243 29.2233ZM115.14 20.2955C116.312 21.6406 116.895 23.5237 116.895 25.9512C116.895 26.4267 116.883 26.7895 116.87 27.0273H106.11C106.346 28.0783 106.829 28.8979 107.567 29.4985C108.299 30.0991 109.205 30.3932 110.278 30.3932C111.009 30.3932 111.741 30.2493 112.417 29.9615C113.093 29.6862 113.701 29.267 114.204 28.7353L116.108 30.7498C115.369 31.5694 114.464 32.2075 113.447 32.6267C112.405 33.0709 111.245 33.2899 109.974 33.2899C108.485 33.2899 107.17 32.9771 106.035 32.3514C104.925 31.7508 104.007 30.8311 103.406 29.7175C102.786 28.5851 102.482 27.2838 102.482 25.8136C102.482 24.3433 102.792 23.0357 103.424 21.8971C104.032 20.7772 104.944 19.8513 106.054 19.2319C107.183 18.5937 108.46 18.2809 109.893 18.2809C112.219 18.2809 113.968 18.9566 115.14 20.2955ZM113.658 24.6311C113.621 23.5425 113.267 22.6791 112.597 22.0347C111.927 21.3903 111.034 21.065 109.924 21.065C108.888 21.065 108.02 21.3841 107.319 22.016C106.618 22.6478 106.191 23.5175 106.023 24.6248H113.658V24.6311ZM98.6302 19.0442C99.4737 18.5374 100.46 18.2747 101.589 18.2559V21.7344C100.082 21.6406 98.8783 21.9972 97.979 22.798C97.0797 23.5988 96.627 24.6812 96.627 26.0388V33.1585H93.0856V18.3935H96.627V21.2339C97.1232 20.2767 97.7868 19.5447 98.6302 19.0442ZM90.4312 32.2451C89.2714 32.9645 88.0496 33.3212 86.7782 33.3212C85.5254 33.3212 84.4958 32.9458 83.702 32.2013C82.9019 31.4568 82.505 30.3557 82.505 28.9042V14.94L86.0215 14.5146V18.9941H90.1893V21.6155H86.0215V28.2723C86.0215 28.9542 86.1456 29.436 86.3999 29.7175C86.6541 30.0053 87.0325 30.1429 87.541 30.1429C88.0868 30.1429 88.7752 29.9427 89.6125 29.5361L90.4312 32.2451ZM75.9433 18.3935H79.4598V26.6707C79.4598 31.5006 76.1293 33.2961 72.7492 33.2961C69.3691 33.2961 66.0448 31.5006 66.0448 26.6707V18.3935H69.5614V26.7958C69.5614 28.6477 70.9258 30.1492 72.7554 30.1492C74.585 30.1492 75.9494 28.6477 75.9494 26.7958L75.9433 18.3935ZM58.7575 14.89C60.2769 15.7221 61.5422 16.9546 62.4228 18.4498C63.3159 19.9576 63.7563 21.6343 63.7563 23.4737C63.7563 25.313 63.3097 26.9897 62.4228 28.51C61.5422 30.0178 60.2769 31.2628 58.7575 32.1137C57.2007 32.9958 55.4828 33.44 53.5912 33.44C51.6996 33.44 49.9816 32.9958 48.4311 32.1137C46.9116 31.2628 45.6464 30.0178 44.7657 28.51C43.8788 26.9897 43.4323 25.313 43.4323 23.4737C43.4323 21.6343 43.8788 19.9576 44.7657 18.4498C45.6464 16.9483 46.9116 15.7221 48.4311 14.89C49.9816 14.0266 51.7058 13.5949 53.5912 13.5949C55.4828 13.5887 57.2069 14.0203 58.7575 14.89ZM50.4095 17.7742C49.4234 18.3372 48.6047 19.1568 48.0404 20.1453C47.4574 21.1526 47.1659 22.2599 47.1659 23.4737C47.1659 24.6874 47.4636 25.801 48.0528 26.8146C48.6233 27.8093 49.442 28.6352 50.4219 29.217C51.4143 29.8051 52.4872 30.0991 53.6532 30.0991C54.7758 30.1054 55.8797 29.7988 56.841 29.217C57.8147 28.6352 58.6148 27.8093 59.173 26.8146C59.7498 25.7948 60.0413 24.6436 60.0289 23.4737C60.0289 22.2599 59.7436 21.1526 59.173 20.1453C58.621 19.1631 57.8147 18.3435 56.841 17.7742C55.8735 17.1986 54.7758 16.8983 53.6532 16.9045C52.512 16.8983 51.3956 17.1986 50.4095 17.7742ZM16.745 5.31152C21.7624 5.31152 29.3413 6.86935 32.864 10.4417C33.7571 11.3489 34.9293 13.1194 34.9293 15.7221C34.9293 20.3393 31.2515 27.4277 27.1954 31.5444C25.0991 33.6715 21.7624 36.4493 17.2721 36.4493C12.8811 36.4493 9.53201 33.4338 8.5645 32.4453C4.84328 28.679 2.18262 22.9607 2.18262 17.6365C2.18262 14.2706 3.13153 11.3301 5.54411 8.88389C7.77684 6.62535 11.6283 5.31152 16.745 5.31152ZM22.9532 23.7364C24.6463 22.0222 25.1053 19.9076 25.1053 18.7439C25.1053 17.8993 24.8882 16.6668 23.8463 15.6095C22.2524 13.9891 20.4786 13.5324 18.556 13.5324C16.1186 13.5324 14.4812 14.3144 13.3897 15.4155C12.5338 16.2914 11.7957 17.6177 11.7957 19.5134C11.7957 21.4028 12.7943 23.2297 13.8734 24.3308C14.8782 25.3443 16.4535 26.0951 18.035 26.0951C19.6227 26.0951 21.26 25.4507 22.9532 23.7364Z" fill="#A05BF8"/>
</g>
</g>
<defs>
<clipPath id="clip0_296_9775">
<rect width="164.447" height="46.7067" fill="white" transform="translate(0.182617)"/>
</clipPath>
<clipPath id="clip1_296_9775">
<rect width="164.447" height="46.7067" fill="white" transform="translate(2.18262)"/>
</clipPath>
</defs>
</svg>
