<svg width="44" height="39" viewBox="0 0 44 39" fill="none" xmlns="http://www.w3.org/2000/svg">
<path fill-rule="evenodd" clip-rule="evenodd" d="M4.92653 0.43644C4.58081 0.521397 3.92842 0.774215 3.4768 0.998486C2.78347 1.34267 2.53544 1.52711 1.88314 2.18394C1.00708 3.06616 0.651703 3.61786 0.267775 4.69161C0.0145298 5.39989 0 5.50741 0 6.67971C0 7.852 0.0145298 7.95953 0.267775 8.66781C0.650762 9.73891 1.00572 10.2904 1.8834 11.1774C2.56664 11.8679 2.75946 12.0081 3.55005 12.3891C4.04175 12.6261 4.72089 12.8807 5.05918 12.9549C5.92558 13.145 7.12582 13.1293 7.95598 12.917C9.70733 12.4691 10.8743 11.6114 11.9693 9.96711C12.5054 9.16199 12.7064 8.93473 13.1354 8.64824C14.0184 8.05858 14.3189 8.00448 16.7089 8.00448C19.0989 8.00448 19.3994 8.05858 20.2824 8.64824C20.7114 8.93473 20.9123 9.16199 21.4485 9.96711C22.3016 11.248 23.0715 11.942 24.2532 12.4949C27.4174 13.9755 31.2423 12.6074 32.7453 9.45746C33.589 7.68936 33.589 5.67006 32.7453 3.90196C31.2423 0.751993 27.4174 -0.616113 24.2532 0.86447C23.073 1.41677 22.3015 2.11147 21.4525 3.38632C20.7395 4.45691 20.3155 4.82255 19.4012 5.15537C18.9508 5.31921 18.6675 5.34648 17.0761 5.3793C13.8599 5.44553 13.174 5.17665 11.963 3.37436C10.8675 1.74395 9.69742 0.887803 7.95598 0.442423C7.09292 0.221656 5.81139 0.219178 4.92653 0.43644ZM28.2472 6.67971V7.96175H26.9652H25.6831V6.67971V5.39767H26.9652H28.2472V6.67971ZM15.1704 13.2649C11.2086 14.2878 9.17657 18.6057 10.9288 22.2778C12.4317 25.4278 16.2567 26.7959 19.4208 25.3153C20.6026 24.7623 21.3725 24.0684 22.2256 22.7875C22.7617 21.9824 22.9627 21.7551 23.3917 21.4686C24.2747 20.879 24.5752 20.8249 26.9652 20.8249C29.3552 20.8249 29.6557 20.879 30.5387 21.4686C30.9677 21.7551 31.1686 21.9824 31.7048 22.7875C32.7997 24.4317 33.9667 25.2895 35.7181 25.7374C36.5482 25.9497 37.7485 25.9654 38.6149 25.7753C38.9532 25.701 39.6323 25.4464 40.124 25.2094C40.9146 24.8285 41.1074 24.6882 41.7907 23.9977C42.6684 23.1107 43.0233 22.5593 43.4063 21.4882C43.6595 20.7799 43.6741 20.6724 43.6741 19.5001C43.6741 18.3278 43.6595 18.2203 43.4063 17.512C43.0219 16.437 42.6669 15.8864 41.7862 14.9997C41.1011 14.3099 40.9037 14.1664 40.1195 13.7885C39.6303 13.5528 38.9532 13.2991 38.6149 13.2249C37.7485 13.0348 36.5482 13.0505 35.7181 13.2628C33.969 13.7101 32.7996 14.5688 31.7088 16.2067C30.9958 17.2773 30.5718 17.6429 29.6575 17.9757C29.2071 18.1396 28.9238 18.1669 27.3324 18.1997C24.1162 18.2659 23.4303 17.997 22.2193 16.1947C21.1238 14.5643 19.9537 13.7082 18.2123 13.2628C17.3229 13.0354 16.056 13.0362 15.1704 13.2649ZM17.9909 19.5001V20.7821H16.7089H15.4268V19.5001V18.2181H16.7089H17.9909V19.5001ZM4.92653 26.0772C4.58081 26.1622 3.92842 26.415 3.4768 26.6392C2.78347 26.9834 2.53544 27.1679 1.88314 27.8247C1.00708 28.7069 0.651703 29.2586 0.267775 30.3324C0.0145298 31.0407 0 31.1482 0 32.3205C0 33.4928 0.0145298 33.6003 0.267775 34.3086C0.650762 35.3797 1.00572 35.9311 1.8834 36.8181C2.56664 37.5086 2.75946 37.6489 3.55005 38.0298C4.04175 38.2668 4.72089 38.5214 5.05918 38.5957C5.92558 38.7858 7.12582 38.7701 7.95598 38.5578C9.70733 38.1099 10.8743 37.2521 11.9693 35.6079C12.5054 34.8027 12.7064 34.5755 13.1354 34.289C14.0184 33.6993 14.3189 33.6452 16.7089 33.6452C19.0989 33.6452 19.3994 33.6993 20.2824 34.289C20.7114 34.5755 20.9123 34.8027 21.4485 35.6079C22.3016 36.8888 23.0715 37.5827 24.2532 38.1357C27.4174 39.6163 31.2423 38.2482 32.7453 35.0982C33.589 33.3301 33.589 31.3108 32.7453 29.5427C31.2423 26.3927 27.4174 25.0246 24.2532 26.5052C23.073 27.0575 22.3015 27.7522 21.4525 29.0271C20.7395 30.0977 20.3155 30.4633 19.4012 30.7961C18.9508 30.96 18.6675 30.9872 17.0761 31.0201C13.8599 31.0863 13.174 30.8174 11.963 29.0151C10.8675 27.3847 9.69742 26.5286 7.95598 26.0832C7.09292 25.8624 5.81139 25.8599 4.92653 26.0772ZM28.2472 32.3205V33.6025H26.9652H25.6831V32.3205V31.0384H26.9652H28.2472V32.3205Z" fill="url(#paint0_linear_215_17708)"/>
<defs>
<linearGradient id="paint0_linear_215_17708" x1="-2.72751" y1="19.5001" x2="92.6012" y2="19.5001" gradientUnits="userSpaceOnUse">
<stop stop-color="#8932F6"/>
<stop offset="1" stop-color="#1B152B" stop-opacity="0"/>
</linearGradient>
</defs>
</svg>
