<svg width="159" height="48" viewBox="0 0 159 48" fill="none" xmlns="http://www.w3.org/2000/svg">
<g clip-path="url(#clip0_296_9784)">
<g clip-path="url(#clip1_296_9784)">
<path d="M46.083 14.3427H53.4998C58.2282 14.3427 62.1342 17.0786 62.1342 23.3251V24.6377C62.1342 30.9316 58.4812 33.7624 53.6421 33.7624H46.083V14.3427ZM50.2263 17.8693V30.22H53.4049C56.0933 30.22 57.8961 28.4647 57.8961 24.5586V23.5307C57.8961 19.6246 55.9984 17.8693 53.2626 17.8693H50.2263ZM64.3324 18.059H67.6533L68.191 21.7121C68.8236 19.2293 70.4366 17.9009 73.3622 17.9009H74.3901V22.0916H72.6822C69.3138 22.0916 68.4915 23.2618 68.4915 26.5828V33.8098H64.3956V18.059H64.3324ZM75.2124 26.2507V25.8079C75.2124 20.5418 78.5808 17.6637 83.1669 17.6637C87.8478 17.6637 91.1213 20.5418 91.1213 25.8079V26.2507C91.1213 31.4219 87.9427 34.2052 83.1669 34.2052C78.0906 34.1577 75.2124 31.4377 75.2124 26.2507ZM86.9306 26.2033V25.8079C86.9306 22.8823 85.4599 21.127 83.1194 21.127C80.8264 21.127 79.3083 22.74 79.3083 25.8079V26.2033C79.3083 29.034 80.779 30.647 83.1194 30.647C85.4599 30.5996 86.9306 29.034 86.9306 26.2033ZM93.272 18.059H96.6879L97.0832 21.0321C97.9056 19.0395 99.6609 17.6637 102.254 17.6637C106.255 17.6637 108.896 20.5418 108.896 25.8712V26.314C108.896 31.4851 105.971 34.221 102.254 34.221C99.7716 34.221 98.0637 33.0982 97.2255 31.2954V39.2498H93.2246L93.272 18.059ZM104.737 26.2033V25.8553C104.737 22.7242 103.124 21.1744 100.973 21.1744C98.6804 21.1744 97.1623 22.9298 97.1623 25.8553V26.1558C97.1623 28.9391 98.633 30.6944 100.926 30.6944C103.282 30.647 104.737 29.1447 104.737 26.2033ZM114.953 30.9L114.605 33.7782H111.094V12.793H115.095V20.8423C115.981 18.7865 117.736 17.6637 120.219 17.6637C123.983 17.7111 126.766 20.3046 126.766 25.5233V26.0135C126.766 31.2321 124.125 34.221 120.124 34.221C117.483 34.1577 115.775 32.94 114.953 30.9ZM122.56 26.0135V25.6181C122.56 22.74 120.994 21.127 118.796 21.127C116.55 21.127 114.985 22.9298 114.985 25.6656V26.0135C114.985 28.9391 116.503 30.647 118.748 30.647C121.152 30.647 122.56 29.1447 122.56 26.0135ZM128.522 26.2507V25.8079C128.522 20.5418 131.89 17.6637 136.476 17.6637C141.157 17.6637 144.43 20.5418 144.43 25.8079V26.2507C144.43 31.4219 141.204 34.2052 136.476 34.2052C131.4 34.1577 128.522 31.4377 128.522 26.2507ZM140.271 26.2033V25.8079C140.271 22.8823 138.801 21.127 136.46 21.127C134.167 21.127 132.649 22.74 132.649 25.8079V26.2033C132.649 29.034 134.12 30.647 136.46 30.647C138.816 30.5996 140.271 29.034 140.271 26.2033ZM149.791 25.6181L144.272 18.059H149.001L152.179 22.7874L155.405 18.059H160.086L154.488 25.5707L160.387 33.7782H155.753L152.148 28.5595L148.637 33.7782H143.798L149.791 25.6181Z" fill="#A05BF8"/>
<path d="M20.5908 14.3424L11.4187 20.1936L20.5908 26.0448L11.4187 31.896L2.24658 26.0131L11.4187 20.162L2.24658 14.3424L11.4187 8.49121L20.5908 14.3424ZM11.3713 33.7778L20.5434 27.9266L29.7155 33.7778L20.5434 39.629L11.3713 33.7778ZM20.5908 26.0131L29.763 20.162L20.5908 14.3424L29.7155 8.49121L38.8877 14.3424L29.7155 20.1936L38.8877 26.0448L29.7155 31.896L20.5908 26.0131Z" fill="#A05BF8"/>
</g>
</g>
<defs>
<clipPath id="clip0_296_9784">
<rect width="158.608" height="46.7067" fill="white" transform="translate(0.246582 0.707031)"/>
</clipPath>
<clipPath id="clip1_296_9784">
<rect width="158.608" height="46.7067" fill="white" transform="translate(2.24658 0.707031)"/>
</clipPath>
</defs>
</svg>
