<svg width="105" height="26" viewBox="0 0 105 26" fill="none" xmlns="http://www.w3.org/2000/svg">
<path fill-rule="evenodd" clip-rule="evenodd" d="M23.0228 11.4883C23.4219 9.54803 24.7109 8.56148 26.4052 8.56148C28.0849 8.56148 29.3132 9.59225 29.705 11.4883H23.0228ZM26.4973 5.2002C22.1833 5.2002 19.5 8.65427 19.5 12.8792C19.5 17.2548 22.3673 20.5002 26.6289 20.5002C29.568 20.5002 31.3508 19.1382 32.4542 17.423L29.7106 15.6666C29.0208 16.6109 27.9171 17.1098 26.7341 17.1098C24.7989 17.1098 23.503 16.2018 23.0613 14.386H30.3028C30.3022 14.3883 30.3017 14.3907 30.301 14.3932L32.9409 14.4087C33.041 13.9309 33.1 13.4372 33.1 12.8792C33.1 9.19908 30.8377 5.2002 26.4973 5.2002Z" fill="#0062FF"/>
<path fill-rule="evenodd" clip-rule="evenodd" d="M8.44981 17.1001C5.79547 17.1001 4.19981 15.1972 4.19981 12.85C4.19981 10.5028 5.82606 8.6001 8.44981 8.6001C11.0736 8.6001 12.6998 10.5028 12.6998 12.85C12.6998 15.1972 11.1041 17.1001 8.44981 17.1001ZM12.4106 7.44646C11.3507 6.17347 9.84584 5.39313 7.97787 5.39313C3.80262 5.39313 0.799805 8.77507 0.799805 12.9466C0.799805 17.1183 3.77411 20.5001 7.97787 20.5001C9.84584 20.5001 11.3507 19.7198 12.4106 18.4468V20.1281H16.0998V0.100098H12.4106V7.44646Z" fill="#0062FF"/>
<path fill-rule="evenodd" clip-rule="evenodd" d="M44.3817 12.5993C45.3833 13.2989 46.0181 14.3481 46.0181 15.7325C46.0181 18.5305 44.1321 20.4718 40.606 20.4718C37.2877 20.4718 35.5083 18.7715 34.7998 17.0543L37.8455 15.2758C37.8455 15.2758 38.2555 17.1315 40.5514 17.1315C41.9727 17.1315 42.4101 16.5034 42.4101 15.9486C42.4101 15.6916 42.328 15.2187 41.3168 14.8189C39.2855 14.0162 35.3581 13.6561 35.3581 9.99403C35.3581 6.99646 37.7078 5.39772 40.606 5.39772C43.3161 5.39772 45.057 7.08396 45.7179 8.396L42.7381 10.1368C42.7381 10.1368 42.1641 8.68075 40.6334 8.68075C39.1028 8.68075 38.9661 9.56593 38.9661 9.82275C38.9661 10.5722 39.7301 10.8799 41.3714 11.3646C42.3432 11.6515 43.3413 11.912 44.3848 12.5966C44.3838 12.5975 44.3827 12.5984 44.3817 12.5993ZM104.5 9.33744H101.411V15.2757C101.411 17.1316 103.215 16.7318 104.5 16.7318V20.0721C104.5 20.0721 103.823 20.1863 102.641 20.1863C100.017 20.1863 97.8853 19.387 97.8853 15.2757V9.33744H95.5072V5.79723H97.8853V1.80029H101.411V5.79723H104.5V9.33744ZM54.7837 16.8745C56.2469 16.8745 57.3719 16.1455 57.9405 14.9496L60.9969 16.7801C59.7994 18.9739 57.5679 20.5003 54.7837 20.5003C50.5609 20.5003 47.6088 17.1258 47.6088 12.9633C47.6088 8.80062 50.5882 5.42617 54.7837 5.42617C57.5271 5.42617 59.7502 6.92763 60.9607 9.0923L57.911 10.9646C57.3314 9.78434 56.2153 9.05193 54.7837 9.05193C52.65 9.05193 51.1349 10.8031 51.1349 12.9633C51.1349 15.1234 52.6361 16.8745 54.7837 16.8745Z" fill="#0062FF"/>
<path fill-rule="evenodd" clip-rule="evenodd" d="M87.1968 16.8354C84.9 16.8354 83.5192 15.0447 83.5192 12.8359C83.5192 10.6271 84.9264 8.83655 87.1968 8.83655C89.467 8.83655 90.8744 10.6271 90.8744 12.8359C90.8744 15.0447 89.4936 16.8354 87.1968 16.8354ZM87.635 5.34753C91.5117 5.34753 94.2997 8.70031 94.2997 12.8359C94.2997 16.9716 91.5382 20.3243 87.635 20.3243C85.9006 20.3243 84.5033 19.5506 83.5192 18.2886V25.6001H80.0937V5.74476H83.5192V7.38316C84.5033 6.12114 85.9006 5.34753 87.635 5.34753ZM73.5086 19.9554V5.773H76.934V19.9554H73.5086ZM67.125 8.19561C67.7862 6.47699 69.1329 5.49399 71.1611 5.48957V9.57408C68.783 9.33376 67.0651 10.5968 67.1278 13.5805C67.1268 13.5784 67.126 13.5761 67.125 13.5738V19.9554H63.6997V5.77318H67.125V8.19561ZM73.5086 3.88033V0.100098H77.0469V3.88033H73.5086Z" fill="#0062FF"/>
</svg>
