<svg width="167" height="48" viewBox="0 0 167 48" fill="none" xmlns="http://www.w3.org/2000/svg">
<g clip-path="url(#clip0_296_9780)">
<g clip-path="url(#clip1_296_9780)">
<g clip-path="url(#clip2_296_9780)">
<path d="M37.2839 11.2381C34.5988 9.98177 31.7276 9.06873 28.726 8.54883C28.3573 9.21532 27.9266 10.1118 27.6297 10.8249C24.4388 10.345 21.2773 10.345 18.1451 10.8249C17.8482 10.1118 17.4078 9.21532 17.0358 8.54883C14.0309 9.06873 11.1565 9.98513 8.47131 11.2448C3.05527 19.4291 1.58707 27.4102 2.32117 35.2779C5.91337 37.9605 9.39465 39.59 12.8172 40.6564C13.6622 39.4934 14.4159 38.2571 15.0651 36.9541C13.8286 36.4842 12.6443 35.9044 11.5252 35.2313C11.8221 35.0113 12.1125 34.7814 12.393 34.5448C19.2185 37.7372 26.6346 37.7372 33.3785 34.5448C33.6624 34.7814 33.9527 35.0113 34.2464 35.2313C33.124 35.9077 31.9364 36.4875 30.6999 36.9575C31.3492 38.2571 32.0996 39.4967 32.9479 40.6597C36.3737 39.5933 39.8582 37.9638 43.4504 35.2779C44.3118 26.1572 41.979 18.2494 37.2839 11.2381ZM15.995 30.4393C13.9461 30.4393 12.2658 28.5265 12.2658 26.1972C12.2658 23.8678 13.9102 21.9517 15.995 21.9517C18.0799 21.9517 19.7601 23.8645 19.7243 26.1972C19.7275 28.5265 18.0799 30.4393 15.995 30.4393ZM29.7766 30.4393C27.7276 30.4393 26.0473 28.5265 26.0473 26.1972C26.0473 23.8678 27.6917 21.9517 29.7766 21.9517C31.8614 21.9517 33.5417 23.8645 33.5058 26.1972C33.5058 28.5265 31.8614 30.4393 29.7766 30.4393Z" fill="#A05BF8"/>
<path d="M57.8873 16.7406H66.7941C68.9413 16.7406 70.7552 17.0838 72.2433 17.7669C73.7274 18.45 74.8402 19.4031 75.5777 20.6228C76.3147 21.8424 76.6866 23.2387 76.6866 24.8116C76.6866 26.3511 76.3016 27.7474 75.5317 28.997C74.7618 30.25 73.5904 31.2398 72.0147 31.9695C70.439 32.6993 68.4875 33.0659 66.155 33.0659H57.8873V16.7406ZM66.0634 28.9171C67.5089 28.9171 68.6217 28.5472 69.3979 27.8107C70.1746 27.0709 70.563 26.0646 70.563 24.7883C70.563 23.6052 70.2167 22.6622 69.5253 21.9557C68.8338 21.2492 67.7864 20.8927 66.3864 20.8927H63.6001V28.9171H66.0634Z" fill="#A05BF8"/>
<path d="M90.0213 33.046C88.788 32.7194 87.6752 32.2462 86.6869 31.623V27.7508C87.4341 28.3406 88.4354 28.8272 89.6915 29.2104C90.9476 29.5903 92.1617 29.7802 93.3359 29.7802C93.884 29.7802 94.2986 29.7069 94.5789 29.5603C94.8598 29.4137 95.0003 29.2371 95.0003 29.0338C95.0003 28.8005 94.9252 28.6073 94.7717 28.4506C94.6181 28.294 94.3213 28.164 93.8812 28.054L91.1404 27.4242C89.571 27.051 88.4582 26.5345 87.7963 25.8713C87.1339 25.2115 86.804 24.3451 86.804 23.2721C86.804 22.369 87.0912 21.5859 87.6723 20.9161C88.2495 20.2463 89.0717 19.7297 90.1385 19.3665C91.2058 19 92.4517 18.8167 93.884 18.8167C95.1629 18.8167 96.3343 18.9566 97.4016 19.2366C98.4683 19.5165 99.3492 19.873 100.051 20.3096V23.9719C99.3327 23.5354 98.5104 23.1921 97.571 22.9322C96.6345 22.6756 95.6724 22.549 94.6801 22.549C93.2477 22.549 92.5336 22.7989 92.5336 23.2954C92.5336 23.5287 92.6444 23.702 92.8662 23.8186C93.088 23.9352 93.4957 24.0552 94.0865 24.1818L96.3701 24.6017C97.8616 24.865 98.9739 25.3282 99.7046 25.988C100.436 26.6478 100.801 27.6242 100.801 28.9172C100.801 30.3334 100.198 31.4564 98.9869 32.2895C97.7763 33.1226 96.0602 33.5391 93.8352 33.5391C92.5267 33.5359 91.2547 33.3725 90.0213 33.046Z" fill="#A05BF8"/>
<path d="M106.192 32.556C104.884 31.9028 103.895 31.0164 103.236 29.8967C102.577 28.777 102.244 27.5174 102.244 26.1178C102.244 24.7182 102.587 23.4652 103.272 22.3622C103.957 21.2592 104.962 20.3927 106.287 19.7629C107.611 19.1331 109.194 18.8198 111.037 18.8198C113.321 18.8198 115.217 19.3097 116.724 20.2894V24.5582C116.192 24.185 115.572 23.8817 114.864 23.6485C114.156 23.4152 113.399 23.2985 112.59 23.2985C111.174 23.2985 110.068 23.5618 109.269 24.0917C108.469 24.6215 108.068 25.3113 108.068 26.1677C108.068 27.0075 108.456 27.694 109.233 28.2339C110.01 28.7704 111.135 29.0403 112.613 29.0403C113.373 29.0403 114.124 28.927 114.864 28.7037C115.602 28.4771 116.238 28.2005 116.769 27.8739V32.0027C115.096 33.0291 113.155 33.5423 110.946 33.5423C109.086 33.5356 107.5 33.2091 106.192 32.556Z" fill="#A05BF8"/>
<path d="M122.42 32.5562C121.102 31.9031 120.098 31.01 119.406 29.8736C118.714 28.7373 118.365 27.471 118.365 26.0714C118.365 24.6718 118.711 23.4221 119.406 22.3258C120.1 21.2294 121.099 20.3697 122.411 19.7465C123.719 19.1233 125.282 18.8134 127.092 18.8134C128.903 18.8134 130.466 19.1233 131.774 19.7465C133.083 20.3697 134.081 21.2228 134.766 22.3124C135.452 23.4022 135.794 24.6518 135.794 26.0681C135.794 27.4676 135.452 28.734 134.766 29.8703C134.081 31.0066 133.079 31.8997 131.761 32.5529C130.443 33.206 128.887 33.5326 127.089 33.5326C125.291 33.5326 123.735 33.2093 122.42 32.5562ZM129.36 28.4174C129.915 27.8509 130.195 27.1011 130.195 26.168C130.195 25.235 129.918 24.4918 129.36 23.942C128.806 23.3888 128.048 23.1122 127.089 23.1122C126.114 23.1122 125.35 23.3888 124.792 23.942C124.238 24.4952 123.96 25.235 123.96 26.168C123.96 27.1011 124.238 27.8509 124.792 28.4174C125.347 28.9839 126.114 29.2705 127.089 29.2705C128.048 29.2671 128.806 28.9839 129.36 28.4174Z" fill="#A05BF8"/>
<path d="M149.517 19.6798V24.7184C148.936 24.3285 148.185 24.1352 147.256 24.1352C146.038 24.1352 145.099 24.5118 144.446 25.2649C143.791 26.0181 143.464 27.191 143.464 28.7772V33.0693H137.869V19.4233H143.35V23.762C143.653 22.1758 144.146 21.0062 144.825 20.2496C145.5 19.4966 146.374 19.12 147.438 19.12C148.244 19.12 148.936 19.3066 149.517 19.6798Z" fill="#A05BF8"/>
<path d="M168.108 16.274V33.0692H162.512V30.0134C162.039 31.1631 161.321 32.0395 160.356 32.6393C159.389 33.2359 158.195 33.5358 156.779 33.5358C155.514 33.5358 154.411 33.2225 153.468 32.5927C152.525 31.9629 151.798 31.0998 151.285 30.0034C150.776 28.9071 150.518 27.6675 150.518 26.2812C150.502 24.8516 150.773 23.5686 151.331 22.4322C151.886 21.2959 152.672 20.4095 153.683 19.773C154.695 19.1365 155.85 18.8166 157.145 18.8166C159.811 18.8166 161.599 19.9996 162.512 22.3622V16.274H168.108ZM161.677 28.3239C162.248 27.7574 162.532 27.021 162.532 26.1212C162.532 25.2515 162.254 24.5416 161.7 23.9985C161.145 23.4553 160.385 23.182 159.429 23.182C158.486 23.182 157.732 23.4586 157.168 24.0118C156.603 24.565 156.323 25.2814 156.323 26.1679C156.323 27.0543 156.603 27.7774 157.168 28.3372C157.732 28.8971 158.476 29.177 159.406 29.177C160.349 29.1737 161.106 28.8904 161.677 28.3239Z" fill="#A05BF8"/>
<path d="M81.4018 20.8758C82.9423 20.8758 84.1915 19.73 84.1915 18.3165C84.1915 16.9031 82.9423 15.7573 81.4018 15.7573C79.8609 15.7573 78.6121 16.9031 78.6121 18.3165C78.6121 19.73 79.8609 20.8758 81.4018 20.8758Z" fill="#A05BF8"/>
<path d="M78.6097 22.6389C80.319 23.3919 82.44 23.4253 84.1885 22.6389V33.1425H78.6097V22.6389Z" fill="#A05BF8"/>
</g>
</g>
</g>
<defs>
<clipPath id="clip0_296_9780">
<rect width="166.393" height="46.7067" fill="white" transform="translate(0.14502 0.707031)"/>
</clipPath>
<clipPath id="clip1_296_9780">
<rect width="166.393" height="46.7067" fill="white" transform="translate(2.14502 0.707031)"/>
</clipPath>
<clipPath id="clip2_296_9780">
<rect width="166.393" height="46.7067" fill="white" transform="translate(2.14502 0.707031)"/>
</clipPath>
</defs>
</svg>
