<svg width="164" height="47" viewBox="0 0 164 47" fill="none" xmlns="http://www.w3.org/2000/svg">
<g clip-path="url(#clip0_296_9773)">
<g clip-path="url(#clip1_296_9773)">
<path d="M142.566 21.9764C144.629 21.9764 145.424 23.239 145.535 24.3384C145.537 24.355 145.535 24.3717 145.53 24.3875C145.525 24.4033 145.516 24.4179 145.505 24.4302C145.493 24.4425 145.48 24.4523 145.465 24.4589C145.449 24.4656 145.433 24.469 145.416 24.469H139.749C139.732 24.469 139.716 24.4654 139.7 24.4584C139.685 24.4514 139.671 24.4413 139.66 24.4286C139.649 24.4159 139.64 24.4009 139.635 24.3847C139.63 24.3686 139.629 24.3515 139.631 24.3347C139.784 23.2605 140.736 21.9764 142.566 21.9764ZM145.672 28.9663C145.634 28.9661 145.597 28.9749 145.563 28.9919C145.53 29.009 145.501 29.0338 145.479 29.0642C144.968 29.7841 144.136 30.228 142.894 30.228C141.183 30.228 139.697 29.1034 139.537 27.5098C139.535 27.4933 139.537 27.4766 139.542 27.4609C139.548 27.4452 139.556 27.4307 139.567 27.4184C139.578 27.4061 139.592 27.3963 139.607 27.3896C139.622 27.3828 139.639 27.3793 139.655 27.3792H149.837C149.866 27.2897 149.926 26.6072 149.926 25.9833C149.926 21.2351 147.095 18.4153 142.506 18.4153C138.662 18.4153 135.116 21.4421 135.116 26.1913C135.116 31.1483 138.752 34.0567 142.834 34.0567C146.524 34.0567 148.862 31.9922 149.62 29.4969C149.624 29.482 149.65 29.3887 149.678 29.2526C149.685 29.218 149.684 29.1822 149.676 29.1478C149.667 29.1135 149.651 29.0814 149.629 29.054C149.607 29.0265 149.579 29.0044 149.547 28.9893C149.515 28.9741 149.48 28.9663 149.444 28.9663H145.672ZM154.675 26.1157L149.847 19.234C149.822 19.1983 149.808 19.1565 149.805 19.113C149.802 19.0695 149.811 19.0261 149.832 18.9876C149.852 18.949 149.882 18.9167 149.919 18.8942C149.957 18.8717 150 18.8599 150.043 18.8601H154.789C154.871 18.8601 154.945 18.9002 154.99 18.9673L157.47 22.7439C157.517 22.8157 157.623 22.8148 157.67 22.742L160.093 18.9701C160.115 18.9364 160.144 18.9087 160.18 18.8894C160.215 18.8702 160.254 18.8601 160.294 18.8601H164.768C164.962 18.8601 165.075 19.0774 164.964 19.235L160.201 25.9358C160.172 25.9756 160.157 26.0233 160.157 26.0722C160.157 26.1211 160.172 26.1689 160.2 26.209C161.759 28.4283 163.541 30.9926 165.14 33.2371C165.252 33.3947 165.14 33.611 164.946 33.611H160.232C160.193 33.6112 160.154 33.6015 160.119 33.583C160.084 33.5644 160.055 33.5375 160.033 33.5047L157.461 29.6051C157.45 29.5887 157.435 29.5753 157.418 29.5661C157.401 29.5568 157.381 29.5519 157.362 29.5519C157.342 29.5519 157.323 29.5568 157.305 29.5661C157.288 29.5753 157.273 29.5887 157.262 29.6051C156.492 30.7502 155.485 32.3447 154.721 33.5047C154.7 33.5376 154.67 33.5645 154.635 33.5831C154.6 33.6017 154.561 33.6113 154.522 33.611H150.128C150.085 33.6113 150.042 33.5996 150.005 33.5773C149.968 33.555 149.937 33.5229 149.917 33.4845C149.897 33.4461 149.888 33.4029 149.89 33.3596C149.893 33.3163 149.907 33.2746 149.932 33.239L154.676 26.3862C154.703 26.3465 154.718 26.2993 154.718 26.2509C154.718 26.2026 154.703 26.1554 154.676 26.1157H154.675ZM129.097 33.3742V12.3607C129.097 12.2292 129.204 12.1229 129.335 12.1229H133.388C133.52 12.1229 133.627 12.2292 133.627 12.3607V33.3742C133.627 33.5047 133.52 33.611 133.388 33.611H129.335C129.304 33.6111 129.273 33.6051 129.244 33.5933C129.215 33.5814 129.189 33.564 129.167 33.542C129.145 33.52 129.127 33.4939 129.115 33.4651C129.103 33.4363 129.097 33.4054 129.097 33.3742ZM122.422 33.3742V12.3607C122.422 12.2292 122.529 12.1229 122.661 12.1229H126.713C126.845 12.1229 126.951 12.2292 126.951 12.3607V33.3742C126.951 33.5047 126.845 33.611 126.713 33.611H122.661C122.63 33.6111 122.599 33.6051 122.57 33.5933C122.541 33.5814 122.515 33.564 122.492 33.542C122.47 33.52 122.453 33.4939 122.441 33.4651C122.428 33.4363 122.422 33.4054 122.422 33.3742ZM112.4 30.1385C114.218 30.1385 115.767 28.7146 115.767 26.2211C115.767 23.6689 114.247 22.3327 112.4 22.3327C110.463 22.3327 109.003 23.6689 109.003 26.2211C109.003 28.6549 110.523 30.1394 112.4 30.1394V30.1385ZM115.797 31.7116C115.141 33.1364 113.652 34.0269 111.804 34.0269C107.453 34.0269 104.444 30.7325 104.444 26.1913C104.444 21.7993 107.275 18.4144 111.655 18.4144C114.307 18.4144 115.469 19.869 115.767 20.5516V19.0969C115.767 18.9664 115.873 18.8601 116.006 18.8601H119.909C120.04 18.8601 120.147 18.9664 120.147 19.0979V33.3742C120.147 33.5047 120.04 33.611 119.909 33.611H116.008C115.977 33.611 115.946 33.6048 115.917 33.5927C115.888 33.5805 115.861 33.5628 115.839 33.5404C115.817 33.518 115.8 33.4915 115.788 33.4623C115.776 33.4331 115.77 33.4019 115.771 33.3704C115.778 32.8343 115.797 31.595 115.797 31.7116ZM94.7786 19.0233L97.4931 27.2459C97.5304 27.3578 97.6889 27.3541 97.7206 27.2412L100.04 19.0335C100.054 18.9835 100.084 18.9395 100.125 18.9082C100.167 18.8769 100.217 18.86 100.269 18.8601H104.204C104.365 18.8601 104.48 19.0149 104.433 19.1678L99.9912 33.4441C99.9762 33.4928 99.9461 33.5353 99.9051 33.5655C99.8642 33.5957 99.8146 33.612 99.7637 33.612H95.6113C95.5615 33.6119 95.5129 33.5962 95.4725 33.5671C95.432 33.538 95.4017 33.4969 95.3857 33.4497L92.3365 24.4214C92.2992 24.3132 92.1453 24.3142 92.1099 24.4214L89.1166 33.4478C89.1009 33.4953 89.0707 33.5366 89.0302 33.5659C88.9897 33.5952 88.9409 33.611 88.891 33.611H84.6491C84.5985 33.6111 84.5491 33.595 84.5083 33.5652C84.4674 33.5353 84.437 33.4933 84.4216 33.445L79.9224 19.1687C79.9112 19.1331 79.9086 19.0953 79.9148 19.0585C79.921 19.0217 79.9358 18.9868 79.9579 18.9568C79.9801 18.9267 80.009 18.9023 80.0424 18.8855C80.0757 18.8687 80.1125 18.86 80.1499 18.8601H84.3535C84.4598 18.8601 84.554 18.931 84.5829 19.0335L86.902 27.2151C86.9337 27.327 87.0922 27.3308 87.1295 27.2198L89.8729 19.0233C89.8887 18.9757 89.9191 18.9344 89.9598 18.9051C90.0005 18.8758 90.0493 18.8601 90.0994 18.8601H94.552C94.6546 18.8601 94.7469 18.9254 94.7786 19.0233ZM78.6933 23.0208C78.6933 23.0555 78.6857 23.0898 78.671 23.1212C78.6564 23.1526 78.635 23.1805 78.6084 23.2028C78.5819 23.2251 78.5507 23.2413 78.5172 23.2503C78.4837 23.2593 78.4487 23.2609 78.4145 23.2549C78.0341 23.1906 77.6487 23.16 77.2629 23.1635C75.4446 23.1635 73.8062 24.2321 73.8062 27.1704V33.3742C73.8062 33.5047 73.6999 33.611 73.5684 33.611H69.5159C69.4846 33.6111 69.4537 33.6051 69.4248 33.5933C69.3959 33.5814 69.3696 33.564 69.3474 33.542C69.3253 33.52 69.3077 33.4939 69.2956 33.4651C69.2835 33.4363 69.2773 33.4054 69.2771 33.3742V19.0979C69.2771 18.9673 69.3834 18.8601 69.5159 18.8601H73.4192C73.5507 18.8601 73.657 18.9664 73.657 19.0979V20.8491C74.4319 19.1865 76.3099 18.7118 77.5016 18.7118C77.8634 18.7118 78.2252 18.751 78.5078 18.8125C78.6169 18.8368 78.6933 18.9338 78.6933 19.0447V23.0208ZM62.5129 33.3742V19.0979C62.5129 18.9673 62.6202 18.8601 62.7516 18.8601H66.8042C66.9357 18.8601 67.0429 18.9664 67.0429 19.0979V33.3742C67.0429 33.5047 66.9357 33.611 66.8042 33.611H62.7516C62.7204 33.6111 62.6895 33.6051 62.6606 33.5933C62.6317 33.5814 62.6054 33.564 62.5832 33.542C62.5611 33.52 62.5434 33.4939 62.5314 33.4651C62.5193 33.4363 62.513 33.4054 62.5129 33.3742ZM64.7481 11.707C66.2382 11.707 67.4299 12.8941 67.4299 14.3488C67.4299 15.8034 66.2382 16.9905 64.7481 16.9905C63.3177 16.9905 62.1259 15.8034 62.1259 14.3488C62.1259 12.8941 63.3177 11.707 64.7481 11.707ZM48.0809 25.063H52.8701C52.9522 25.063 53.01 24.9828 52.982 24.9054L50.6173 18.1113C50.6093 18.0878 50.5941 18.0674 50.574 18.0529C50.5538 18.0384 50.5296 18.0305 50.5048 18.0304C50.4799 18.0303 50.4557 18.038 50.4354 18.0523C50.4151 18.0666 50.3998 18.0869 50.3916 18.1104L47.9699 24.9054C47.942 24.9818 47.9998 25.0639 48.0818 25.0639L48.0809 25.063ZM54.3593 29.3375H46.5311C46.482 29.3375 46.4341 29.3528 46.3941 29.3812C46.354 29.4096 46.3237 29.4497 46.3073 29.496L44.8993 33.4534C44.8829 33.4999 44.8524 33.5401 44.8122 33.5685C44.7719 33.5969 44.7238 33.6121 44.6746 33.612H40.2415C40.203 33.6122 40.1649 33.603 40.1307 33.5852C40.0965 33.5675 40.0671 33.5416 40.045 33.51C40.023 33.4783 40.009 33.4418 40.0043 33.4035C39.9995 33.3652 40.0041 33.3263 40.0177 33.2902L47.7946 12.7216C47.8117 12.6763 47.8422 12.6373 47.882 12.6098C47.9219 12.5823 47.9691 12.5676 48.0175 12.5677H53.1406C53.2394 12.5677 53.3289 12.6293 53.3634 12.7225L61.0527 33.2912C61.0659 33.3272 61.0702 33.3658 61.0653 33.4039C61.0604 33.4419 61.0463 33.4781 61.0243 33.5096C61.0023 33.541 60.9731 33.5666 60.939 33.5843C60.905 33.6019 60.8672 33.6111 60.8289 33.611H56.2159C56.1666 33.611 56.1186 33.5958 56.0784 33.5674C56.0382 33.539 56.0077 33.4989 55.9912 33.4525L54.5831 29.496C54.5666 29.4498 54.5363 29.4097 54.4962 29.3814C54.4562 29.353 54.4084 29.3377 54.3593 29.3375Z" fill="#A05BF8"/>
<path fill-rule="evenodd" clip-rule="evenodd" d="M34.2772 20.4624C34.8572 21.027 35.2595 21.7488 35.4347 22.5391C35.6098 23.3294 35.5501 24.1536 35.2628 24.9103L33.0743 30.8558C32.4999 32.4168 31.1907 33.6244 29.5728 33.9396C28.7636 34.1015 27.9255 34.0405 27.1483 33.7629C26.371 33.4853 25.6839 33.0017 25.1603 32.3637L12.0366 16.6402C12.004 16.6015 11.9617 16.572 11.9142 16.5548C11.8666 16.5375 11.8153 16.533 11.7655 16.5418C11.7156 16.5506 11.6689 16.5723 11.6301 16.6048C11.5913 16.6373 11.5617 16.6794 11.5442 16.7269L7.2744 28.2757C7.18582 28.5144 7.4208 28.7456 7.65392 28.6505L12.8935 26.5105C13.1889 26.3907 13.5059 26.3333 13.8245 26.3418C14.1431 26.3503 14.4566 26.4246 14.7452 26.56C15.0337 26.6953 15.2912 26.8889 15.5015 27.1284C15.7117 27.368 15.8702 27.6484 15.967 27.9521C16.354 29.1391 15.7031 30.4213 14.5571 30.8894L7.71267 33.6841C6.44543 34.2016 4.98982 34.1102 3.84847 33.3484C3.07067 32.8286 2.49078 32.0618 2.20247 31.1718C1.91416 30.2818 1.93426 29.3207 2.25952 28.4435L7.30424 14.8032C7.90196 13.1863 9.26339 12.0449 10.9465 11.7502C11.7662 11.6033 12.6102 11.6775 13.3916 11.9652C14.1731 12.2528 14.8638 12.7435 15.3926 13.3867L22.9252 22.4132L29.8535 19.5831C31.393 18.9546 33.0883 19.2912 34.2772 20.4624ZM30.2815 24.9961C30.3692 24.7574 30.1342 24.5262 29.9011 24.6222L26.0732 26.185L28.369 28.9368C28.4016 28.976 28.4439 29.0058 28.4917 29.0234C28.5395 29.0409 28.5911 29.0455 28.6412 29.0367C28.6914 29.0279 28.7384 29.006 28.7773 28.9733C28.8163 28.9405 28.8459 28.898 28.8632 28.8501L30.2806 24.9961H30.2815Z" fill="#A05BF8"/>
</g>
</g>
<defs>
<clipPath id="clip0_296_9773">
<rect width="163.473" height="46.7067" fill="white"/>
</clipPath>
<clipPath id="clip1_296_9773">
<rect width="163.473" height="46.7067" fill="white" transform="translate(2)"/>
</clipPath>
</defs>
</svg>
