<svg width="157" height="47" viewBox="0 0 157 47" fill="none" xmlns="http://www.w3.org/2000/svg">
<g clip-path="url(#clip0_296_9777)">
<g clip-path="url(#clip1_296_9777)">
<path d="M12.4077 14.4497L11.106 19.2411L18.5571 14.4224L13.6839 32.6045L18.6332 32.6086L25.8323 5.75293" fill="#A05BF8"/>
<path d="M4.38769 24.9647L2.33789 32.6085H12.4819L16.6328 17.059L4.38769 24.9647ZM39.6244 18.2351C39.3765 19.1567 38.8987 19.8336 38.1863 20.2659C37.4754 20.6973 36.4778 20.9139 35.1901 20.9139H31.0987L32.5353 15.558H36.6266C37.9127 15.558 38.7962 15.7729 39.2756 16.2109C39.755 16.649 39.8707 17.3185 39.6244 18.2442V18.2351ZM43.8604 18.1285C44.3811 16.1944 44.1662 14.7066 43.2141 13.6652C42.2635 12.632 40.5956 12.1113 38.2152 12.1113H29.0845L23.588 32.6176H28.024L30.2392 24.3523H33.1485C33.8015 24.3523 34.3156 24.4597 34.6909 24.6664C35.0669 24.8813 35.2876 25.2532 35.3554 25.7904L36.1472 32.6176H40.8998L40.1294 26.2533C39.9724 24.8317 39.3219 23.9969 38.1788 23.7489C39.636 23.3274 40.8568 22.6248 41.8404 21.6495C42.8171 20.6813 43.5149 19.4679 43.8604 18.1368V18.1285ZM54.6434 25.278C54.2714 26.6666 53.7011 27.7163 52.93 28.4519C52.158 29.1875 51.2356 29.5512 50.1594 29.5512C49.0634 29.5512 48.3204 29.1958 47.9278 28.4767C47.5344 27.7576 47.5211 26.7162 47.8865 25.3524C48.2518 23.9886 48.8345 22.9224 49.6362 22.1537C50.438 21.385 51.3752 21.0007 52.4514 21.0007C53.5259 21.0007 54.2615 21.3726 54.6334 22.1107C55.0136 22.8521 55.0219 23.9126 54.65 25.2929L54.6434 25.278ZM56.5874 18.021L56.0319 20.0956C55.7922 19.3518 55.3269 18.7566 54.6392 18.3103C53.9499 17.8723 53.0969 17.6491 52.0794 17.6491C50.8314 17.6491 49.6329 17.9714 48.484 18.6161C47.3352 19.2608 46.3268 20.17 45.4672 21.3437C44.6076 22.5174 43.9794 23.8481 43.5744 25.3441C43.1777 26.8484 43.095 28.1626 43.3347 29.3032C43.5827 30.4521 44.1034 31.3282 44.9051 31.9398C45.7152 32.5597 46.7483 32.8656 48.0129 32.8656C49.0178 32.8707 50.0113 32.6533 50.9223 32.2291C51.823 31.8229 52.6241 31.2249 53.2697 30.4769L52.6911 32.6391H56.9808L60.8977 18.0285H56.5998L56.5874 18.021ZM76.3126 18.021H63.8377L62.9657 21.2776H70.2243L60.6283 29.5677L59.8084 32.6259H72.6857L73.5577 29.3693H65.7801L75.5232 20.9552L76.3126 18.021ZM87.293 25.2532C86.9071 26.6914 86.3343 27.7725 85.578 28.4767C84.8217 29.1875 83.9059 29.5429 82.8306 29.5429C80.5824 29.5429 79.8435 28.113 80.6105 25.2532C80.9907 23.8316 81.566 22.7629 82.3347 22.0429C83.1033 21.3206 84.0349 20.9602 85.13 20.9602C86.2045 20.9602 86.9302 21.3181 87.3038 22.0388C87.6774 22.7579 87.6741 23.8299 87.293 25.2515V25.2532ZM89.8041 18.5707C88.8163 17.9557 87.5559 17.6483 86.0185 17.6483C84.4622 17.6483 83.0215 17.9541 81.6958 18.5657C80.3755 19.1735 79.2152 20.0808 78.307 21.2156C77.373 22.3645 76.701 23.7117 76.2886 25.2491C75.8836 26.7806 75.834 28.1254 76.1481 29.2768C76.4622 30.4256 77.1234 31.31 78.1152 31.9217C79.1153 32.5383 80.3882 32.8449 81.9503 32.8449C83.4877 32.8449 84.9176 32.5358 86.2318 31.9208C87.546 31.3026 88.67 30.4248 89.604 29.2677C90.538 28.1155 91.2075 26.7715 91.6208 25.2342C92.034 23.6968 92.0836 22.3545 91.7695 21.2007C91.4555 20.0518 90.8025 19.1674 89.8189 18.5517L89.8041 18.5707ZM105.118 21.9239L106.217 17.9483C105.845 17.7582 105.358 17.659 104.746 17.659C103.763 17.659 102.82 17.902 101.911 18.3946C101.129 18.8129 100.465 19.403 99.9026 20.1419L100.473 18.0012L99.2273 18.0062H96.1692L92.2266 32.611H96.5767L98.6223 24.9763C98.9199 23.8663 99.4555 22.9926 100.228 22.3727C100.997 21.7503 101.956 21.4387 103.113 21.4387C103.824 21.4387 104.485 21.6016 105.113 21.9264L105.118 21.9239ZM117.222 25.3235C116.85 26.6872 116.288 27.7287 115.519 28.4477C114.75 29.1701 113.825 29.5305 112.75 29.5305C111.676 29.5305 110.94 29.1668 110.552 28.4395C110.155 27.708 110.147 26.6542 110.519 25.2689C110.891 23.8845 111.461 22.8224 112.246 22.0868C113.031 21.3454 113.957 20.9751 115.031 20.9751C116.089 20.9751 116.8 21.3553 117.18 22.1239C117.561 22.8926 117.569 23.9588 117.204 25.3226L117.222 25.3235ZM120.245 18.5946C119.439 17.95 118.41 17.6276 117.162 17.6276C116.069 17.6276 115.027 17.8756 114.038 18.3764C113.05 18.8765 112.249 19.5584 111.633 20.4213L111.648 20.3221L112.377 17.9995H108.129L107.046 22.0413L107.013 22.1818L102.55 38.8315H106.906L109.154 30.4504C109.377 31.196 109.832 31.7812 110.526 32.2043C111.22 32.6259 112.077 32.835 113.097 32.835C114.361 32.835 115.568 32.5292 116.713 31.9175C117.862 31.3042 118.853 30.4215 119.696 29.2809C120.539 28.1403 121.165 26.8178 121.564 25.3218C121.969 23.8233 122.052 22.4868 121.821 21.3172C121.585 20.1461 121.064 19.2393 120.258 18.598L120.245 18.5946ZM134.694 25.2639C134.322 26.6442 133.752 27.7022 132.983 28.4296C132.214 29.1619 131.289 29.5264 130.214 29.5264C129.115 29.5264 128.371 29.171 127.982 28.4519C127.586 27.7328 127.577 26.6914 127.941 25.3276C128.305 23.9638 128.885 22.8976 129.687 22.1289C130.488 21.3602 131.427 20.9767 132.503 20.9767C133.577 20.9767 134.305 21.3487 134.685 22.0843C135.065 22.8224 135.067 23.8828 134.697 25.2664L134.694 25.2639ZM136.636 18.0029L136.08 20.0774C135.84 19.3294 135.377 18.7343 134.691 18.2921C133.997 17.8508 133.146 17.6309 132.129 17.6309C130.881 17.6309 129.676 17.9533 128.525 18.598C127.377 19.2427 126.368 20.1469 125.509 21.3172C124.649 22.4876 124.021 23.8216 123.616 25.3177C123.215 26.8195 123.136 28.1361 123.376 29.2817C123.618 30.4223 124.14 31.3034 124.947 31.9184C125.752 32.53 126.79 32.8391 128.054 32.8391C129.071 32.8391 130.042 32.6275 130.964 32.2027C131.862 31.7946 132.661 31.1958 133.305 30.448L132.727 32.6118H137.016L140.933 18.007H136.643L136.636 18.0029ZM158.942 18.0078L158.944 18.0037H156.308C156.223 18.0037 156.149 18.0078 156.072 18.0095H154.704L154.002 18.9848L153.828 19.2162L153.754 19.3319L148.195 27.0749L147.046 18.0078H142.494L144.8 31.7861L139.708 38.8364H144.246L145.478 37.09C145.512 37.0387 145.544 36.9957 145.585 36.9412L147.023 34.8997L147.065 34.8418L153.506 25.7086L158.936 18.0219L158.944 18.0169H158.942V18.0078Z" fill="#A05BF8"/>
</g>
</g>
<defs>
<clipPath id="clip0_296_9777">
<rect width="156.662" height="46.7067" fill="white" transform="translate(0.337891)"/>
</clipPath>
<clipPath id="clip1_296_9777">
<rect width="156.662" height="46.7067" fill="white" transform="translate(2.33789)"/>
</clipPath>
</defs>
</svg>
