<svg width="69" height="61" viewBox="0 0 69 61" fill="none" xmlns="http://www.w3.org/2000/svg">
<path fill-rule="evenodd" clip-rule="evenodd" d="M7.77343 0.420046C7.22792 0.554096 6.19854 0.95301 5.48595 1.30688C4.39197 1.84996 4.0006 2.14099 2.97136 3.17738C1.58905 4.5694 1.0283 5.43992 0.422515 7.13416C0.0229261 8.25174 0 8.42139 0 10.2711C0 12.1209 0.0229261 12.2905 0.422515 13.4081C1.02682 15.0981 1.58689 15.9683 2.97176 17.3678C4.04983 18.4574 4.35407 18.6787 5.60152 19.2797C6.37737 19.6537 7.44896 20.0554 7.98273 20.1726C9.3498 20.4726 11.2436 20.4477 12.5535 20.1128C15.3169 19.4061 17.1583 18.0526 18.886 15.4582C19.732 14.1878 20.049 13.8293 20.726 13.3772C22.1192 12.4468 22.5934 12.3614 26.3645 12.3614C30.1355 12.3614 30.6097 12.4468 32.0029 13.3772C32.6799 13.8293 32.997 14.1878 33.843 15.4582C35.189 17.4794 36.4038 18.5743 38.2685 19.4468C43.2611 21.783 49.2964 19.6243 51.6679 14.6541C52.9991 11.8642 52.9991 8.67803 51.6679 5.88819C49.2964 0.917947 43.2611 -1.24075 38.2685 1.09542C36.4062 1.96688 35.1889 3.06302 33.8493 5.07458C32.7243 6.76383 32.0553 7.34076 30.6125 7.8659C29.902 8.12443 29.4549 8.16745 26.944 8.21924C21.8691 8.32375 20.7868 7.89948 18.8761 5.0557C17.1475 2.48313 15.3013 1.13224 12.5535 0.429486C11.1917 0.0811438 9.16963 0.0772329 7.77343 0.420046ZM44.5705 10.2711V12.294H42.5476H40.5247V10.2711V8.24823H42.5476H44.5705V10.2711ZM23.937 20.6616C17.6857 22.2758 14.4795 29.0887 17.2442 34.883C19.6157 39.8532 25.6509 42.0119 30.6436 39.6757C32.5083 38.8032 33.7231 37.7083 35.0691 35.6871C35.9151 34.4168 36.2321 34.0582 36.9091 33.6061C38.3024 32.6757 38.7765 32.5904 42.5476 32.5904C46.3187 32.5904 46.7928 32.6757 48.1861 33.6061C48.8631 34.0582 49.1801 34.4168 50.0261 35.6871C51.7538 38.2816 53.5952 39.635 56.3586 40.3417C57.6684 40.6767 59.5623 40.7015 60.9293 40.4015C61.4631 40.2844 62.5347 39.8826 63.3106 39.5086C64.558 38.9076 64.8623 38.6863 65.9403 37.5967C67.3252 36.1972 67.8853 35.3271 68.4896 33.637C68.8892 32.5194 68.9121 32.3498 68.9121 30.5C68.9121 28.6503 68.8892 28.4806 68.4896 27.3631C67.8831 25.6669 67.3229 24.798 65.9333 23.399C64.8523 22.3106 64.5407 22.0841 63.3034 21.4879C62.5315 21.116 61.4631 20.7157 60.9293 20.5985C59.5623 20.2986 57.6684 20.3234 56.3586 20.6584C53.5987 21.3643 51.7535 22.719 50.0324 25.3035C48.9074 26.9927 48.2384 27.5697 46.7957 28.0948C46.0851 28.3533 45.638 28.3964 43.1271 28.4481C38.0522 28.5527 36.97 28.1284 35.0593 25.2846C33.3306 22.712 31.4844 21.3612 28.7367 20.6584C27.3333 20.2995 25.3343 20.3009 23.937 20.6616ZM28.3874 30.5V32.5229H26.3645H24.3416V30.5V28.4771H26.3645H28.3874V30.5ZM7.77343 40.8779C7.22792 41.0119 6.19854 41.4108 5.48595 41.7647C4.39197 42.3078 4.0006 42.5988 2.97136 43.6352C1.58905 45.0272 1.0283 45.8977 0.422515 47.592C0.0229261 48.7096 0 48.8792 0 50.7289C0 52.5787 0.0229261 52.7483 0.422515 53.8659C1.02682 55.556 1.58689 56.4261 2.97176 57.8256C4.04983 58.9152 4.35407 59.1365 5.60152 59.7375C6.37737 60.1115 7.44896 60.5133 7.98273 60.6305C9.3498 60.9304 11.2436 60.9056 12.5535 60.5706C15.3169 59.8639 17.1583 58.5105 18.886 55.916C19.732 54.6457 20.049 54.2871 20.726 53.835C22.1192 52.9046 22.5934 52.8193 26.3645 52.8193C30.1355 52.8193 30.6097 52.9046 32.0029 53.835C32.6799 54.2871 32.997 54.6457 33.843 55.916C35.189 57.9372 36.4038 59.0321 38.2685 59.9046C43.2611 62.2408 49.2964 60.0821 51.6679 55.1119C52.9991 52.322 52.9991 49.1358 51.6679 46.346C49.2964 41.3758 43.2611 39.2171 38.2685 41.5532C36.4062 42.4247 35.1889 43.5208 33.8493 45.5324C32.7243 47.2217 32.0553 47.7986 30.6125 48.3237C29.902 48.5823 29.4549 48.6253 26.944 48.6771C21.8691 48.7816 20.7868 48.3573 18.8761 45.5135C17.1475 42.9409 15.3013 41.5901 12.5535 40.8873C11.1917 40.539 9.16963 40.5351 7.77343 40.8779ZM44.5705 50.7289V52.7518H42.5476H40.5247V50.7289V48.7061H42.5476H44.5705V50.7289Z" fill="url(#paint0_linear_215_17712)"/>
<defs>
<linearGradient id="paint0_linear_215_17712" x1="-4.30366" y1="30.5" x2="146.113" y2="30.5" gradientUnits="userSpaceOnUse">
<stop stop-color="#8932F6"/>
<stop offset="1" stop-color="#1B152B" stop-opacity="0"/>
</linearGradient>
</defs>
</svg>
