<svg width="15" height="15" viewBox="0 0 15 15" fill="none" xmlns="http://www.w3.org/2000/svg">
<path fill-rule="evenodd" clip-rule="evenodd" d="M6.62404 0.0425536C4.31633 0.322572 2.26629 1.65499 1.0568 3.66097C-0.00335789 5.4193 -0.283435 7.60463 0.296289 9.59476C1.02639 12.1011 3.06551 14.091 5.57835 14.7495C6.62521 15.0238 7.74526 15.0742 8.7884 14.8939C11.7978 14.3738 14.2256 12.0226 14.8514 9.02227C14.9667 8.4693 14.9883 8.22965 14.9883 7.49884C14.9883 6.76804 14.9667 6.52839 14.8514 5.97541C14.6576 5.04638 14.2924 4.16997 13.7759 3.39489C13.4379 2.88765 13.1982 2.59263 12.8037 2.19809C11.7586 1.15299 10.4385 0.439525 9.00153 0.1431C8.31484 0.00147951 7.31213 -0.0409422 6.62404 0.0425536ZM5.44531 4.61449C5.51724 4.64455 5.88183 4.98691 6.52836 5.63156L7.50294 6.60333L8.47753 5.63156C9.12405 4.98691 9.48865 4.64455 9.56057 4.61449C9.62022 4.58956 9.73916 4.56917 9.82489 4.56917C10.1554 4.56917 10.4032 4.79701 10.4267 5.12255C10.4497 5.43978 10.4572 5.42976 9.38265 6.51008L8.39919 7.49884L9.38265 8.48761C10.4572 9.56793 10.4497 9.55791 10.4267 9.87513C10.4031 10.2016 10.1555 10.4285 9.82292 10.4285C9.73612 10.4285 9.61697 10.4065 9.55814 10.3797C9.49386 10.3503 9.06264 9.94462 8.47724 9.36276L7.50329 8.39474L6.51435 9.37838C5.43383 10.4531 5.44388 10.4456 5.12665 10.4226C4.70991 10.3925 4.45256 9.95377 4.61859 9.55647C4.64865 9.48455 4.99095 9.12001 5.63548 8.47361L6.60705 7.4992L5.62341 6.51025C4.54866 5.42973 4.55621 5.43978 4.57918 5.12255C4.60933 4.70581 5.04802 4.44846 5.44531 4.61449Z" fill="#7A7D9C"/>
</svg>
