<svg width="8" height="9" viewBox="0 0 8 9" fill="none" xmlns="http://www.w3.org/2000/svg">
<g clip-path="url(#clip0_319_13011)">
<path d="M4.28566 7.57132C6.10028 7.57132 7.57132 6.10028 7.57132 4.28566C7.57132 2.47104 6.10028 1 4.28566 1C2.47104 1 1 2.47104 1 4.28566C1 6.10028 2.47104 7.57132 4.28566 7.57132Z" stroke="#7F56D9" stroke-width="0.589734" stroke-linecap="round" stroke-linejoin="round"/>
<path d="M4.28516 2.5166V4.03306" stroke="#7F56D9" stroke-width="0.589734" stroke-linecap="round" stroke-linejoin="round"/>
<path d="M4.28595 5.80236C4.42553 5.80236 4.53869 5.6892 4.53869 5.54962C4.53869 5.41003 4.42553 5.29688 4.28595 5.29688C4.14636 5.29688 4.0332 5.41003 4.0332 5.54962C4.0332 5.6892 4.14636 5.80236 4.28595 5.80236Z" stroke="#7F56D9" stroke-width="0.589734" stroke-linecap="round" stroke-linejoin="round"/>
</g>
<defs>
<clipPath id="clip0_319_13011">
<rect width="8" height="8" fill="white" transform="translate(0 0.5)"/>
</clipPath>
</defs>
</svg>
