<svg width="20" height="16" viewBox="0 0 20 16" fill="none" xmlns="http://www.w3.org/2000/svg">
<path d="M19.8439 1.89354C19.1196 2.21538 18.3424 2.43262 17.5239 2.52923C18.3577 2.02954 18.9984 1.23815 19.3005 0.295385C18.519 0.756923 17.6556 1.09538 16.7356 1.27508C15.9984 0.490462 14.9485 0 13.7867 0C11.5553 0 9.74789 1.808 9.74789 4.03877C9.74789 4.35508 9.78297 4.664 9.8525 4.95938C6.49435 4.78954 3.51835 3.18154 1.52635 0.738461C1.17866 1.33538 0.978658 2.02954 0.978658 2.76923C0.978658 4.17231 1.6925 5.40738 2.77558 6.13231C2.11343 6.11077 1.49066 5.92923 0.946043 5.62769V5.67692C0.946043 7.63508 2.33681 9.26769 4.18543 9.63877C3.84697 9.73108 3.49004 9.78031 3.12081 9.78031C2.8605 9.78031 2.6082 9.75569 2.36204 9.70831C2.87527 11.312 4.3682 12.48 6.13435 12.5132C4.75281 13.5963 3.01127 14.2425 1.11897 14.2425C0.792812 14.2425 0.470966 14.224 0.155273 14.1871C1.94358 15.3317 4.06666 16 6.34789 16C13.7768 16 17.8402 9.84615 17.8402 4.50769C17.8402 4.33292 17.8353 4.15815 17.8279 3.98462C18.6174 3.41538 19.3017 2.70462 19.8439 1.89354Z" fill="#8D4DDE"/>
</svg>
